<svg xmlns="http://www.w3.org/2000/svg" xmlns:xlink="http://www.w3.org/1999/xlink"><symbol id="icon-bowls-and-cups" viewBox="0 0 60 60">
<path d="M59.985 39.8551L57.1255 20.6441C57.0792 15.0657 53.693 9.89303 47.8159 6.43765C42.9483 3.57605 36.6213 2 30.0001 2C23.3786 2 17.0515 3.57605 12.1838 6.43765C6.3069 9.89303 2.92054 15.0657 2.87437 20.6441L0.0148828 39.8551C0.00503905 39.9216 0 39.9887 0 40.056C0 45.7049 3.76452 50.936 10.3284 54.408C15.7022 57.2504 22.6883 58.8158 30.0001 58.8158C37.3116 58.8158 44.2978 57.2504 49.6716 54.408C56.2354 50.936 60 45.7049 60 40.056C59.9999 39.9888 59.9949 39.9216 59.985 39.8551ZM13.5668 8.78995C18.0215 6.17105 23.8576 4.72871 30.0001 4.72871C36.1424 4.72871 41.9785 6.17105 46.4331 8.78995C51.4956 11.7663 54.3993 16.1293 54.3993 20.7599C54.3993 25.3906 51.4957 29.7535 46.4332 32.7299C41.9785 35.3488 36.1424 36.7911 30.0001 36.7911C23.8577 36.7911 18.0215 35.3488 13.5669 32.7299C8.5044 29.7536 5.60073 25.3906 5.60073 20.7599C5.60073 16.1293 8.50428 11.7664 13.5668 8.78995ZM48.3956 51.996C43.4079 54.6342 36.875 56.0871 30.0001 56.0871C23.125 56.0871 16.592 54.6342 11.6044 51.996C6.00374 49.0333 2.77453 44.7218 2.72917 40.1535L4.60757 27.5342C6.17225 30.4612 8.75283 33.0645 12.1841 35.0819C17.0517 37.9434 23.3787 39.5195 30.0001 39.5195C36.6213 39.5195 42.9485 37.9434 47.816 35.0819C51.2473 33.0645 53.8279 30.461 55.3925 27.5342L57.2709 40.1535C57.2255 44.7219 53.9963 49.0335 48.3956 51.996Z" fill="#F1CDB3"/>
<path d="M30.0001 34.0618C39.3534 34.0618 47.6079 30.4427 50.5397 25.0569C51.29 23.6803 51.6707 22.2344 51.6707 20.7599C51.6707 17.0676 49.3194 13.652 45.0502 11.1422C41.0085 8.76631 35.6637 7.45791 30.0001 7.45791C24.3366 7.45791 18.9916 8.76643 14.9501 11.1423C10.6807 13.6521 8.32945 17.0676 8.32945 20.76C8.32945 22.2347 8.70996 23.6804 9.46008 25.0563C12.3923 30.4427 20.6467 34.0618 30.0001 34.0618ZM30.0001 31.3332C22.1546 31.3332 15.0282 28.5145 12.2557 24.4006C15.0293 20.2891 22.1568 17.4732 30.0001 17.4732C37.8435 17.4732 44.9711 20.2891 47.7446 24.4008C44.9726 28.5145 37.8458 31.3332 30.0001 31.3332ZM11.0579 20.76C11.058 18.0744 12.9313 15.4942 16.3328 13.4945C19.9617 11.3613 24.8154 10.1865 30 10.1865C35.1845 10.1865 40.0384 11.3613 43.6672 13.4946C47.0687 15.4942 48.9421 18.0743 48.9421 20.76C48.9421 20.9993 48.9259 21.238 48.896 21.4761C45.1332 17.3699 37.9658 14.7446 30 14.7446C22.0342 14.7446 14.8669 17.37 11.1041 21.4761C11.0738 21.2386 11.0584 20.9994 11.0579 20.76Z" fill="#F1CDB3"/>
<path d="M30 41.7701C29.8155 41.7701 29.6329 41.8076 29.4633 41.8801C29.2936 41.9527 29.1405 42.059 29.0131 42.1924C28.1243 43.1235 25.225 46.3365 25.225 48.5916C25.225 51.2246 27.367 53.3666 30 53.3666C32.633 53.3666 34.775 51.2246 34.775 48.5916C34.775 46.3365 31.8756 43.1235 30.987 42.1924C30.8595 42.059 30.7064 41.9527 30.5368 41.8801C30.3671 41.8076 30.1845 41.7701 30 41.7701ZM30 50.6381C28.8716 50.6381 27.9536 49.7201 27.9536 48.5917C27.9536 47.986 28.9058 46.5224 30 45.1941C31.0943 46.5226 32.0465 47.986 32.0465 48.5917C32.0465 49.7201 31.1284 50.6381 30 50.6381Z" fill="#F1CDB3"/>
<path d="M23.8843 23.8977H23.4637C22.7102 23.8977 22.0994 24.5085 22.0994 25.262C22.0994 26.0155 22.7102 26.6263 23.4637 26.6263H23.8843C24.6378 26.6263 25.2486 26.0155 25.2486 25.262C25.2486 24.5085 24.6378 23.8977 23.8843 23.8977Z" fill="#F1CDB3"/>
<path d="M40.074 23.8977H30.342C29.5884 23.8977 28.9777 24.5085 28.9777 25.262C28.9777 26.0155 29.5884 26.6263 30.342 26.6263H40.074C40.8275 26.6263 41.4383 26.0155 41.4383 25.262C41.4383 24.5085 40.8275 23.8977 40.074 23.8977Z" fill="#F1CDB3"/>
</symbol><symbol id="icon-burger" viewBox="0 0 30 22">
<line y1="21" x2="30" y2="21" stroke-width="2"/>
<line y1="11" x2="30" y2="11" stroke-width="2"/>
<line y1="1" x2="30" y2="1" stroke-width="2"/>
</symbol><symbol id="icon-close" viewBox="0 0 12 12">
<path fill-rule="evenodd" clip-rule="evenodd" d="M7.42618 6.00003L11.7046 1.72158C12.0985 1.32775 12.0985 0.689213 11.7046 0.295433C11.3108 -0.0984027 10.6723 -0.0984027 10.2785 0.295433L5.99998 4.57394L1.72148 0.295377C1.32765 -0.098459 0.68917 -0.098459 0.295334 0.295377C-0.0984448 0.689213 -0.0984448 1.32775 0.295334 1.72153L4.57383 5.99997L0.295334 10.2785C-0.0984448 10.6723 -0.0984448 11.3108 0.295334 11.7046C0.68917 12.0985 1.32765 12.0985 1.72148 11.7046L5.99998 7.42612L10.2785 11.7046C10.6723 12.0985 11.3108 12.0985 11.7046 11.7046C12.0985 11.3108 12.0985 10.6723 11.7046 10.2785L7.42618 6.00003Z" fill="#292929"/>
</symbol><symbol id="icon-collars-leashes" viewBox="0 0 60 60">
<path d="M57.297 10.2511C55.7379 8.99675 53.5393 7.88136 50.7617 6.93613C45.1984 5.04273 37.825 4 29.9997 4C22.1744 4 14.8011 5.04285 9.23787 6.93613C6.4603 7.88136 4.26163 8.99675 2.70257 10.2511C0.909373 11.6942 0 13.2863 0 14.983V28.0989C0 29.7957 0.909373 31.3878 2.70269 32.8308C4.26175 34.0851 6.4603 35.2005 9.23799 36.1458C14.5225 37.9443 21.4409 38.9745 28.8281 39.0733V43.7755H24.7869C24.3392 41.4099 22.2567 39.6156 19.7629 39.6156C16.9435 39.6156 14.6499 41.9093 14.6499 44.7284C14.6499 45.9542 15.0847 47.1148 15.8539 48.0249C15.075 48.9466 14.6484 50.1147 14.6499 51.3214C14.6499 54.1407 16.9435 56.4343 19.7629 56.4343C22.2567 56.4343 24.3392 54.6398 24.7869 52.2744H35.2131C35.6608 54.6399 37.7433 56.4343 40.2371 56.4343C43.0565 56.4343 45.3501 54.1406 45.3501 51.3214C45.3501 50.0956 44.9153 48.935 44.1461 48.0249C44.925 47.1032 45.3516 45.9351 45.3501 44.7284C45.3501 41.9091 43.0565 39.6156 40.2371 39.6156C37.7433 39.6156 35.6608 41.41 35.2131 43.7755H31.1719V39.0733C38.5591 38.9745 45.4775 37.9443 50.762 36.1458C53.5396 35.2005 55.7382 34.0851 57.2973 32.8308C59.0906 31.3878 60 29.7957 60 28.0989V14.983C59.9996 13.2863 59.0903 11.6942 57.297 10.2511ZM36.3022 46.1193C36.4615 46.1193 36.6191 46.0868 36.7655 46.0238C36.9118 45.9608 37.0438 45.8686 37.1533 45.7528C37.2628 45.6371 37.3476 45.5003 37.4024 45.3507C37.4573 45.2011 37.481 45.0419 37.4723 44.8828C37.4694 44.8314 37.4679 44.78 37.4677 44.7286C37.4677 43.2016 38.71 41.9594 40.2369 41.9594C41.7639 41.9594 43.0062 43.2017 43.0062 44.7286C43.0062 45.6643 42.5377 46.5303 41.753 47.0453C41.5905 47.152 41.4571 47.2974 41.3648 47.4684C41.2725 47.6394 41.2242 47.8307 41.2242 48.025C41.2242 48.2194 41.2725 48.4107 41.3648 48.5817C41.4571 48.7527 41.5905 48.8981 41.753 49.0047C42.5377 49.5198 43.0062 50.3858 43.0062 51.3215C43.0062 52.8485 41.7639 54.0906 40.2369 54.0906C38.71 54.0906 37.4677 52.8483 37.4677 51.3215C37.4677 51.2697 37.4696 51.2184 37.4723 51.1673C37.4811 51.0082 37.4574 50.8489 37.4026 50.6993C37.3478 50.5497 37.263 50.4128 37.1535 50.297C37.044 50.1813 36.912 50.0891 36.7656 50.0261C36.6192 49.9631 36.4615 49.9307 36.3022 49.9307H23.6975C23.5382 49.9308 23.3805 49.9633 23.2342 50.0263C23.0878 50.0893 22.9559 50.1815 22.8463 50.2972C22.7368 50.413 22.6521 50.5498 22.5972 50.6994C22.5424 50.849 22.5186 51.0082 22.5274 51.1673C22.5301 51.2184 22.5319 51.2697 22.5319 51.3215C22.5319 52.8485 21.2896 54.0906 19.7627 54.0906C18.2357 54.0906 16.9934 52.8483 16.9934 51.3215C16.9934 50.3858 17.462 49.5198 18.2466 49.0047C18.4091 48.8981 18.5425 48.7527 18.6348 48.5817C18.7271 48.4107 18.7755 48.2194 18.7755 48.025C18.7755 47.8307 18.7271 47.6394 18.6348 47.4684C18.5425 47.2974 18.4091 47.152 18.2466 47.0453C17.462 46.5303 16.9934 45.6643 16.9934 44.7286C16.9934 43.2016 18.2357 41.9594 19.7627 41.9594C21.2896 41.9594 22.5319 43.2017 22.5319 44.7286C22.5319 44.7803 22.5301 44.8317 22.5274 44.8828C22.5185 45.0419 22.5422 45.2011 22.597 45.3508C22.6519 45.5004 22.7366 45.6373 22.8462 45.753C22.9557 45.8688 23.0877 45.961 23.2341 46.0239C23.3804 46.0869 23.5381 46.1194 23.6975 46.1193H36.3022ZM29.9998 36.7383C28.4435 36.7383 27.1772 35.472 27.1772 33.9157C27.1772 32.3593 28.4435 31.0931 29.9998 31.0931C31.5562 31.0931 32.8224 32.3593 32.8224 33.9157C32.8224 35.472 31.5562 36.7383 29.9998 36.7383ZM57.6559 28.0989C57.6559 31.8067 48.3045 35.8985 34.3965 36.6248C34.9005 35.8111 35.1671 34.8727 35.1661 33.9156C35.1661 33.5463 35.1264 33.1862 35.0525 32.8386C39.6006 32.5404 43.8255 31.8617 47.3495 30.8562C47.9718 30.6785 48.3325 30.0301 48.1548 29.4077C47.9772 28.7853 47.329 28.4248 46.7064 28.6024C43.0899 29.6344 38.6789 30.3074 33.9211 30.5577C32.9729 29.4519 31.5673 28.7494 29.9998 28.7494C28.4241 28.7494 27.0118 29.4593 26.0634 30.5753C22.8385 30.4214 19.7739 30.0771 16.9503 29.5459C16.3149 29.426 15.7017 29.8448 15.582 30.4808C15.4624 31.1169 15.881 31.7294 16.5171 31.8492C19.1492 32.3444 21.9775 32.6832 24.9418 32.8625C24.8698 33.2089 24.8335 33.5619 24.8336 33.9157C24.8327 34.8729 25.0993 35.8112 25.6033 36.6249C11.6952 35.8986 2.34375 31.8068 2.34375 28.0989V19.4139L2.35968 19.4272C2.47205 19.5254 2.58637 19.6213 2.70257 19.7149C2.85923 19.8402 3.01885 19.9617 3.18128 20.0794L3.18374 20.0811C3.27117 20.1448 3.36035 20.2081 3.45117 20.271L3.49171 20.2989C3.57714 20.3576 3.66374 20.4161 3.7521 20.4741C3.76991 20.4858 3.7882 20.4975 3.80624 20.5092C3.89542 20.5672 3.98566 20.6251 4.07777 20.6824L4.11749 20.7068C5.50241 21.5632 7.21592 22.3418 9.23776 23.0299C14.801 24.9233 22.1743 25.9661 29.9997 25.9661C37.8251 25.9661 45.1984 24.9233 50.7617 23.0299C52.7837 22.3418 54.4974 21.5631 55.8824 20.7066L55.9216 20.6825C56.0139 20.6251 56.1042 20.5672 56.1935 20.5091L56.2474 20.4742C56.3358 20.4162 56.4225 20.3577 56.5079 20.299L56.5485 20.2711C56.6393 20.2082 56.7285 20.1449 56.8159 20.0813L56.8184 20.0795C56.9808 19.9619 57.1404 19.8403 57.2971 19.715C57.4132 19.6214 57.5276 19.5255 57.64 19.4274L57.6559 19.414V28.0989ZM7.52928 19.8543C8.5501 19.3876 9.94639 18.8517 11.8024 18.3313C16.8453 16.9173 23.3081 16.1387 29.9998 16.1387C36.6916 16.1387 43.1543 16.9174 48.1971 18.3313C50.0533 18.8516 51.4497 19.3875 52.4704 19.8543C47.6207 22.0156 39.6821 23.6224 29.9998 23.6224C20.3176 23.6224 12.379 22.0154 7.52928 19.8543ZM57.6485 15.1548C57.6434 15.2232 57.6352 15.2913 57.624 15.359L57.6225 15.3696C57.6098 15.4416 57.594 15.5129 57.575 15.5835C57.5616 15.6345 57.5465 15.6851 57.53 15.7353L57.5204 15.7647C57.4946 15.839 57.4658 15.9122 57.4342 15.9843C57.4218 16.0128 57.4083 16.0411 57.3948 16.0696C57.3679 16.1263 57.3395 16.1828 57.3088 16.2387L57.3006 16.2537C56.813 17.1338 55.8925 17.9036 54.9784 18.5047C53.7646 17.8055 51.8179 16.9124 48.8301 16.0746C43.587 14.6046 36.8997 13.7952 29.9999 13.7952C23.1002 13.7952 16.413 14.6047 11.1697 16.0747C8.18202 16.9124 6.23542 17.8055 5.02147 18.5049C4.10753 17.9038 3.18703 17.1339 2.69929 16.2538L2.69109 16.2388C2.66039 16.1828 2.63203 16.1263 2.60496 16.0695C2.5916 16.0411 2.57812 16.0129 2.56582 15.9845C2.55527 15.9606 2.54531 15.9366 2.53546 15.9126C2.51542 15.8633 2.49632 15.8141 2.47945 15.7649C2.47605 15.7552 2.473 15.7452 2.46972 15.7355C2.44857 15.6715 2.42993 15.6068 2.41382 15.5414C2.39958 15.4847 2.38738 15.4275 2.37726 15.3699L2.37574 15.3592C2.36456 15.2915 2.35638 15.2234 2.35125 15.1551C2.34653 15.0978 2.34403 15.0404 2.34375 14.983C2.34375 10.8967 13.7017 6.34375 29.9998 6.34375C46.298 6.34375 57.6559 10.8967 57.6559 14.983C57.6559 15.0402 57.6529 15.0975 57.6485 15.1548Z" fill="#F1CDB3"/>
<path d="M48.1765 11.6432C48.1309 11.4162 48.0197 11.2076 47.8567 11.0432C47.8022 10.989 47.7425 10.9404 47.6785 10.8979C47.5506 10.8129 47.4073 10.7536 47.2567 10.7233C47.1055 10.6928 46.9497 10.6928 46.7985 10.7233C46.7235 10.7385 46.6509 10.7608 46.5794 10.7901C46.5091 10.8194 46.4411 10.8557 46.3778 10.8979C46.3134 10.9401 46.2536 10.9893 46.1985 11.0432C46.1446 11.0971 46.0966 11.1581 46.0533 11.2213C45.9683 11.3493 45.909 11.4926 45.8787 11.6432C45.8635 11.7194 45.8564 11.7956 45.8564 11.8717C45.8564 11.9491 45.8636 12.0252 45.8787 12.1014C45.909 12.252 45.9683 12.3953 46.0533 12.5233C46.0966 12.5866 46.1446 12.6463 46.1985 12.7014C46.2537 12.7553 46.3135 12.8034 46.3778 12.8467C46.4411 12.8889 46.5091 12.9252 46.5794 12.9545C46.6509 12.9838 46.7236 13.0061 46.7985 13.0213C46.8747 13.0366 46.9521 13.0448 47.0282 13.0448C47.1044 13.0448 47.1818 13.0366 47.2567 13.0213C47.3317 13.0061 47.4057 12.9838 47.4759 12.9545C47.5462 12.9252 47.6141 12.8889 47.6785 12.8467C47.7418 12.8034 47.8028 12.7553 47.8567 12.7014C47.9106 12.6463 47.9598 12.5866 48.002 12.5233C48.087 12.3953 48.1463 12.252 48.1765 12.1014C48.1919 12.0252 48.2 11.9491 48.2 11.8717C48.2 11.7954 48.1919 11.7193 48.1765 11.6432Z" fill="#F1CDB3"/>
<path d="M43.4829 9.86056C39.4455 9.10095 34.85 8.69935 30.1935 8.69935C23.7488 8.69935 17.5185 9.46435 12.6504 10.8536C12.0282 11.0313 11.6675 11.6797 11.8451 12.302C11.9918 12.8171 12.4611 13.1527 12.9713 13.1527C13.0777 13.1527 13.186 13.1382 13.2934 13.1075C17.9582 11.7763 23.96 11.0432 30.1934 11.0432C34.707 11.0432 39.1525 11.4308 43.0495 12.164C43.6858 12.2834 44.2981 11.8651 44.4179 11.229C44.5376 10.5929 44.1189 9.98044 43.4829 9.86056Z" fill="#F1CDB3"/>
<path d="M14.121 29.6092C14.1058 29.5342 14.0835 29.4604 14.0542 29.3889C14.0249 29.3186 13.9886 29.2506 13.9464 29.1873C13.9038 29.1231 13.8547 29.0634 13.7999 29.0092C13.746 28.9553 13.6862 28.9061 13.6218 28.8627C13.5585 28.8205 13.4905 28.7854 13.4201 28.7561C13.3495 28.7265 13.2761 28.7041 13.201 28.6893C13.0498 28.6588 12.8941 28.6588 12.7429 28.6893C12.6678 28.7033 12.5939 28.7268 12.5237 28.7561C12.4523 28.7854 12.3843 28.8205 12.321 28.8627C12.2566 28.9061 12.1968 28.9553 12.1429 29.0092C12.089 29.0631 12.0398 29.1229 11.9976 29.1873C11.9554 29.2506 11.9191 29.3186 11.8898 29.3889C11.8605 29.4604 11.8382 29.5342 11.823 29.6092C11.8077 29.6842 11.7995 29.7615 11.7995 29.8377C11.8003 29.9914 11.8309 30.1434 11.8898 30.2854C11.9191 30.3568 11.9554 30.4248 11.9976 30.4881C12.0398 30.5525 12.089 30.6122 12.1429 30.6662C12.1968 30.7201 12.2566 30.7693 12.321 30.8115C12.3843 30.8549 12.4523 30.8901 12.5237 30.9193C12.5941 30.9486 12.6678 30.9721 12.7429 30.9861C12.8179 31.0014 12.8952 31.0096 12.9713 31.0096C13.0475 31.0096 13.1249 31.0014 13.201 30.9861C13.2761 30.9713 13.3495 30.9489 13.4201 30.9193C13.4909 30.8905 13.5585 30.8543 13.6218 30.8115C13.686 30.7693 13.7457 30.7206 13.7999 30.6662C13.9092 30.5575 13.9957 30.428 14.0542 30.2854C14.1134 30.1436 14.1436 29.9914 14.1432 29.8377C14.1432 29.7614 14.1361 29.6842 14.121 29.6092Z" fill="#F1CDB3"/>
</symbol><symbol id="icon-credit-card" viewBox="0 0 30 23">
<path d="M25.9815 23H4.01915C1.80285 23 0 21.2046 0 19.0001V3.9999C0 1.79421 1.80285 0 4.01915 0H25.9808C28.196 0 30 1.79421 30 3.9999V19.0001C30.0006 21.2052 28.1972 23 25.9815 23ZM4.01915 1.14285C2.43563 1.14285 1.14836 2.42396 1.14836 3.9999V19.0001C1.14836 20.5755 2.43563 21.8571 4.01915 21.8571H25.9808C27.5638 21.8571 28.8516 20.5755 28.8516 19.0001V3.9999C28.8516 2.42396 27.5638 1.14285 25.9808 1.14285H4.01915ZM20.7037 3.35993C22.1363 3.35993 23.2977 4.51532 23.2977 5.94153C23.2977 7.36774 22.1368 8.52376 20.7037 8.52376C19.2706 8.52376 18.1097 7.36783 18.1097 5.94153C18.1097 4.51523 19.2712 3.35993 20.7037 3.35993ZM24.3204 3.35993C25.7529 3.35993 26.9151 4.51532 26.9151 5.94153C26.9151 7.36774 25.7536 8.52376 24.3204 8.52376C22.8873 8.52376 21.7264 7.36783 21.7264 5.94153C21.7264 4.51523 22.8879 3.35993 24.3204 3.35993ZM3.0861 16.3339H7.8683V18.0481H3.0861V16.3339ZM9.43467 16.3339H14.2175V18.0481H9.43467V16.3339ZM15.782 16.3339H20.5659V18.0481H15.782V16.3339ZM22.1305 16.3339H26.9144V18.0481H22.1305V16.3339ZM3.0861 3.36046H12.1263V5.07474H3.0861V3.36046ZM3.0861 6.76208H7.86946V8.47637H3.0861V6.76208Z" fill="#292929"/>
</symbol><symbol id="icon-left-arrow" viewBox="0 0 14 6">
<path d="M14 2V4H3V6L0 3L3 0V2H14Z" fill="#444444"/>
</symbol><symbol id="icon-logo" viewBox="0 0 190 61">
<path d="M0.583984 55.0103L1.74561 54.9087C1.80062 55.3742 1.92757 55.7572 2.12646 56.0576C2.32959 56.3538 2.64274 56.5951 3.06592 56.7812C3.4891 56.9632 3.96517 57.0542 4.49414 57.0542C4.96387 57.0542 5.37858 56.9844 5.73828 56.8447C6.09798 56.7051 6.36458 56.5146 6.53809 56.2734C6.71582 56.028 6.80469 55.7614 6.80469 55.4736C6.80469 55.1816 6.72005 54.9277 6.55078 54.7119C6.38151 54.4919 6.10221 54.3078 5.71289 54.1597C5.46322 54.0623 4.91097 53.9121 4.05615 53.709C3.20133 53.5016 2.60254 53.307 2.25977 53.125C1.81543 52.8923 1.48324 52.6045 1.26318 52.2617C1.04736 51.9147 0.939453 51.5275 0.939453 51.1001C0.939453 50.6304 1.07275 50.1924 1.33936 49.7861C1.60596 49.3757 1.99528 49.0646 2.50732 48.853C3.01937 48.6414 3.58854 48.5356 4.21484 48.5356C4.90462 48.5356 5.51188 48.6478 6.03662 48.8721C6.56559 49.0921 6.97184 49.418 7.25537 49.8496C7.5389 50.2812 7.69124 50.77 7.7124 51.3159L6.53174 51.4048C6.46826 50.8166 6.25244 50.3722 5.88428 50.0718C5.52035 49.7713 4.98079 49.6211 4.26562 49.6211C3.52083 49.6211 2.97705 49.7586 2.63428 50.0337C2.29574 50.3045 2.12646 50.6325 2.12646 51.0176C2.12646 51.3519 2.24707 51.627 2.48828 51.8428C2.72526 52.0586 3.3431 52.2808 4.3418 52.5093C5.34473 52.7336 6.03239 52.9303 6.40479 53.0996C6.94645 53.3493 7.34635 53.6667 7.60449 54.0518C7.86263 54.4326 7.9917 54.8727 7.9917 55.3721C7.9917 55.8672 7.84993 56.3348 7.56641 56.7749C7.28288 57.2108 6.87451 57.5514 6.34131 57.7969C5.81234 58.0381 5.21566 58.1587 4.55127 58.1587C3.70915 58.1587 3.00244 58.036 2.43115 57.7905C1.8641 57.5451 1.41764 57.1769 1.0918 56.686C0.770182 56.1909 0.600911 55.6323 0.583984 55.0103ZM10.8278 58V48.6943H11.9704V52.0332C12.5036 51.4154 13.1765 51.1064 13.989 51.1064C14.4883 51.1064 14.9221 51.2059 15.2902 51.4048C15.6584 51.5994 15.9208 51.8703 16.0773 52.2173C16.2382 52.5643 16.3186 53.0679 16.3186 53.728V58H15.176V53.728C15.176 53.1567 15.0511 52.742 14.8015 52.4839C14.556 52.2215 14.2069 52.0903 13.7541 52.0903C13.4156 52.0903 13.0961 52.1792 12.7956 52.3569C12.4994 52.5304 12.2878 52.7674 12.1608 53.0679C12.0339 53.3683 11.9704 53.783 11.9704 54.312V58H10.8278ZM23.9789 55.8291L25.1596 55.9751C24.9734 56.6649 24.6285 57.2002 24.1249 57.5811C23.6213 57.9619 22.9781 58.1523 22.1952 58.1523C21.2092 58.1523 20.4263 57.8498 19.8466 57.2446C19.2711 56.6353 18.9833 55.7826 18.9833 54.6865C18.9833 53.5524 19.2753 52.6722 19.8593 52.0459C20.4433 51.4196 21.2007 51.1064 22.1317 51.1064C23.0331 51.1064 23.7694 51.4132 24.3407 52.0269C24.912 52.6405 25.1977 53.5037 25.1977 54.6167C25.1977 54.6844 25.1955 54.786 25.1913 54.9214H20.164C20.2063 55.6619 20.4158 56.229 20.7924 56.6226C21.169 57.0161 21.6387 57.2129 22.2016 57.2129C22.6205 57.2129 22.9781 57.1029 23.2743 56.8828C23.5705 56.6628 23.8054 56.3115 23.9789 55.8291ZM20.2274 53.9819H23.9916C23.9408 53.4149 23.7969 52.9896 23.56 52.7061C23.196 52.266 22.7242 52.0459 22.1444 52.0459C21.6197 52.0459 21.1775 52.2215 20.8178 52.5728C20.4623 52.924 20.2655 53.3937 20.2274 53.9819ZM27.8751 58V48.6943H29.0177V58H27.8751ZM34.5896 56.978L34.7547 57.9873C34.4331 58.055 34.1453 58.0889 33.8914 58.0889C33.4767 58.0889 33.1551 58.0233 32.9266 57.8921C32.698 57.7609 32.5372 57.5895 32.4441 57.3779C32.351 57.1621 32.3045 56.7114 32.3045 56.0259V52.1475H31.4666V51.2588H32.3045V49.5894L33.4407 48.9038V51.2588H34.5896V52.1475H33.4407V56.0894C33.4407 56.4152 33.4598 56.6247 33.4979 56.7178C33.5402 56.8109 33.6058 56.8849 33.6946 56.9399C33.7877 56.995 33.9189 57.0225 34.0882 57.0225C34.2151 57.0225 34.3823 57.0076 34.5896 56.978ZM41.6279 55.8291L42.8086 55.9751C42.6224 56.6649 42.2775 57.2002 41.7739 57.5811C41.2703 57.9619 40.6271 58.1523 39.8442 58.1523C38.8582 58.1523 38.0754 57.8498 37.4956 57.2446C36.9201 56.6353 36.6323 55.7826 36.6323 54.6865C36.6323 53.5524 36.9243 52.6722 37.5083 52.0459C38.0923 51.4196 38.8498 51.1064 39.7808 51.1064C40.6821 51.1064 41.4185 51.4132 41.9897 52.0269C42.561 52.6405 42.8467 53.5037 42.8467 54.6167C42.8467 54.6844 42.8446 54.786 42.8403 54.9214H37.813C37.8553 55.6619 38.0648 56.229 38.4414 56.6226C38.818 57.0161 39.2878 57.2129 39.8506 57.2129C40.2695 57.2129 40.6271 57.1029 40.9233 56.8828C41.2196 56.6628 41.4544 56.3115 41.6279 55.8291ZM37.8765 53.9819H41.6406C41.5898 53.4149 41.446 52.9896 41.209 52.7061C40.8451 52.266 40.3732 52.0459 39.7935 52.0459C39.2687 52.0459 38.8265 52.2215 38.4668 52.5728C38.1113 52.924 37.9146 53.3937 37.8765 53.9819ZM45.5368 58V51.2588H46.5651V52.2808C46.8275 51.8026 47.0687 51.4873 47.2888 51.335C47.5131 51.1826 47.7585 51.1064 48.0251 51.1064C48.4102 51.1064 48.8016 51.2292 49.1994 51.4746L48.8059 52.5347C48.5266 52.3696 48.2473 52.2871 47.968 52.2871C47.7183 52.2871 47.494 52.3633 47.2951 52.5156C47.0962 52.6637 46.9545 52.8711 46.8698 53.1377C46.7429 53.5439 46.6794 53.9883 46.6794 54.4707V58H45.5368ZM56.3697 58V52.1475H55.3605V51.2588H56.3697V50.5415C56.3697 50.0887 56.4099 49.7523 56.4903 49.5322C56.6004 49.236 56.7929 48.9969 57.068 48.8149C57.3473 48.6287 57.7366 48.5356 58.2359 48.5356C58.5576 48.5356 58.913 48.5737 59.3023 48.6499L59.131 49.6465C58.894 49.6042 58.6697 49.583 58.4581 49.583C58.1111 49.583 57.8657 49.6571 57.7218 49.8052C57.5779 49.9533 57.506 50.2305 57.506 50.6367V51.2588H58.8199V52.1475H57.506V58H56.3697ZM60.5896 54.6294C60.5896 53.381 60.9367 52.4564 61.6307 51.8555C62.2104 51.3561 62.9171 51.1064 63.7508 51.1064C64.6775 51.1064 65.435 51.4111 66.0232 52.0205C66.6115 52.6257 66.9056 53.4635 66.9056 54.5342C66.9056 55.4017 66.7744 56.0851 66.512 56.5845C66.2539 57.0796 65.8751 57.4647 65.3758 57.7397C64.8807 58.0148 64.339 58.1523 63.7508 58.1523C62.8071 58.1523 62.0433 57.8498 61.4593 57.2446C60.8795 56.6395 60.5896 55.7677 60.5896 54.6294ZM61.764 54.6294C61.764 55.4927 61.9523 56.1401 62.3289 56.5718C62.7055 56.9992 63.1795 57.2129 63.7508 57.2129C64.3178 57.2129 64.7897 56.9971 65.1663 56.5654C65.5429 56.1338 65.7313 55.4757 65.7313 54.5913C65.7313 53.7576 65.5408 53.1271 65.16 52.6997C64.7833 52.2681 64.3136 52.0522 63.7508 52.0522C63.1795 52.0522 62.7055 52.266 62.3289 52.6934C61.9523 53.1208 61.764 53.7661 61.764 54.6294ZM69.5386 58V51.2588H70.5669V52.2808C70.8293 51.8026 71.0705 51.4873 71.2905 51.335C71.5148 51.1826 71.7603 51.1064 72.0269 51.1064C72.4119 51.1064 72.8034 51.2292 73.2012 51.4746L72.8076 52.5347C72.5283 52.3696 72.249 52.2871 71.9697 52.2871C71.7201 52.2871 71.4958 52.3633 71.2969 52.5156C71.098 52.6637 70.9562 52.8711 70.8716 53.1377C70.7446 53.5439 70.6812 53.9883 70.6812 54.4707V58H69.5386ZM80.0985 60.5835V51.2588H81.1395V52.1348C81.385 51.792 81.6622 51.536 81.9711 51.3667C82.28 51.1932 82.6545 51.1064 83.0946 51.1064C83.6701 51.1064 84.178 51.2546 84.6181 51.5508C85.0582 51.847 85.3904 52.266 85.6146 52.8076C85.8389 53.3451 85.9511 53.9354 85.9511 54.5786C85.9511 55.2684 85.8262 55.8905 85.5766 56.4448C85.3311 56.995 84.9714 57.4181 84.4975 57.7144C84.0277 58.0063 83.5326 58.1523 83.0121 58.1523C82.6312 58.1523 82.2885 58.0719 81.9838 57.9111C81.6833 57.7503 81.4358 57.5472 81.2411 57.3018V60.5835H80.0985ZM81.1332 54.6675C81.1332 55.535 81.3088 56.1761 81.6601 56.5908C82.0113 57.0055 82.4366 57.2129 82.9359 57.2129C83.4437 57.2129 83.8775 56.9992 84.2372 56.5718C84.6011 56.1401 84.7831 55.4736 84.7831 54.5723C84.7831 53.7132 84.6054 53.07 84.2499 52.6426C83.8987 52.2152 83.4776 52.0015 82.9867 52.0015C82.5001 52.0015 82.0684 52.23 81.6918 52.687C81.3194 53.1398 81.1332 53.8 81.1332 54.6675ZM93.2496 55.8291L94.4303 55.9751C94.2441 56.6649 93.8992 57.2002 93.3956 57.5811C92.892 57.9619 92.2488 58.1523 91.4659 58.1523C90.4799 58.1523 89.697 57.8498 89.1173 57.2446C88.5418 56.6353 88.254 55.7826 88.254 54.6865C88.254 53.5524 88.546 52.6722 89.13 52.0459C89.714 51.4196 90.4715 51.1064 91.4024 51.1064C92.3038 51.1064 93.0401 51.4132 93.6114 52.0269C94.1827 52.6405 94.4684 53.5037 94.4684 54.6167C94.4684 54.6844 94.4662 54.786 94.462 54.9214H89.4347C89.477 55.6619 89.6865 56.229 90.0631 56.6226C90.4397 57.0161 90.9094 57.2129 91.4723 57.2129C91.8912 57.2129 92.2488 57.1029 92.545 56.8828C92.8412 56.6628 93.0761 56.3115 93.2496 55.8291ZM89.4981 53.9819H93.2623C93.2115 53.4149 93.0676 52.9896 92.8307 52.7061C92.4667 52.266 91.9949 52.0459 91.4151 52.0459C90.8904 52.0459 90.4482 52.2215 90.0885 52.5728C89.733 52.924 89.5362 53.3937 89.4981 53.9819ZM99.6658 56.978L99.8309 57.9873C99.5092 58.055 99.2215 58.0889 98.9676 58.0889C98.5529 58.0889 98.2312 58.0233 98.0027 57.8921C97.7742 57.7609 97.6134 57.5895 97.5203 57.3779C97.4272 57.1621 97.3807 56.7114 97.3807 56.0259V52.1475H96.5428V51.2588H97.3807V49.5894L98.5169 48.9038V51.2588H99.6658V52.1475H98.5169V56.0894C98.5169 56.4152 98.5359 56.6247 98.574 56.7178C98.6163 56.8109 98.6819 56.8849 98.7708 56.9399C98.8639 56.995 98.9951 57.0225 99.1644 57.0225C99.2913 57.0225 99.4585 57.0076 99.6658 56.978ZM101.632 55.9878L102.762 55.8101C102.826 56.2629 103.001 56.6099 103.289 56.8511C103.581 57.0923 103.987 57.2129 104.508 57.2129C105.033 57.2129 105.422 57.1071 105.676 56.8955C105.93 56.6797 106.057 56.4279 106.057 56.1401C106.057 55.882 105.944 55.6789 105.72 55.5308C105.564 55.4292 105.174 55.3001 104.552 55.1436C103.714 54.932 103.132 54.75 102.807 54.5977C102.485 54.4411 102.24 54.2274 102.07 53.9565C101.905 53.6815 101.823 53.3789 101.823 53.0488C101.823 52.7484 101.89 52.4712 102.026 52.2173C102.166 51.9591 102.354 51.7454 102.591 51.5762C102.769 51.445 103.01 51.335 103.314 51.2461C103.623 51.153 103.953 51.1064 104.305 51.1064C104.834 51.1064 105.297 51.1826 105.695 51.335C106.097 51.4873 106.393 51.6947 106.583 51.957C106.774 52.2152 106.905 52.5622 106.977 52.998L105.86 53.1504C105.809 52.8034 105.661 52.5326 105.416 52.3379C105.174 52.1432 104.832 52.0459 104.387 52.0459C103.862 52.0459 103.488 52.1326 103.264 52.3062C103.039 52.4797 102.927 52.6828 102.927 52.9155C102.927 53.0636 102.974 53.1969 103.067 53.3154C103.16 53.4382 103.306 53.5397 103.505 53.6201C103.619 53.6624 103.956 53.7598 104.514 53.9121C105.322 54.1279 105.885 54.3057 106.203 54.4453C106.524 54.5807 106.776 54.7796 106.958 55.042C107.14 55.3044 107.231 55.6302 107.231 56.0195C107.231 56.4004 107.119 56.7601 106.895 57.0986C106.674 57.4329 106.355 57.6932 105.936 57.8794C105.517 58.0614 105.043 58.1523 104.514 58.1523C103.638 58.1523 102.97 57.9704 102.508 57.6064C102.051 57.2425 101.759 56.703 101.632 55.9878ZM114.814 50.0083V48.6943H115.956V50.0083H114.814ZM114.814 58V51.2588H115.956V58H114.814ZM119.002 58V51.2588H120.03V52.2173C120.525 51.4767 121.241 51.1064 122.176 51.1064C122.582 51.1064 122.955 51.1805 123.293 51.3286C123.636 51.4725 123.892 51.6629 124.061 51.8999C124.23 52.1369 124.349 52.4183 124.417 52.7441C124.459 52.9557 124.48 53.326 124.48 53.855V58H123.338V53.8994C123.338 53.4339 123.293 53.0869 123.204 52.8584C123.115 52.6257 122.957 52.4416 122.728 52.3062C122.504 52.1665 122.239 52.0967 121.935 52.0967C121.448 52.0967 121.027 52.2511 120.671 52.5601C120.32 52.869 120.145 53.4551 120.145 54.3184V58H119.002ZM132.552 58V48.6943H136.043C136.754 48.6943 137.323 48.7896 137.75 48.98C138.182 49.1662 138.519 49.4561 138.76 49.8496C139.005 50.2389 139.128 50.6473 139.128 51.0747C139.128 51.4725 139.02 51.847 138.804 52.1982C138.588 52.5495 138.263 52.833 137.827 53.0488C138.389 53.2139 138.821 53.4953 139.122 53.8931C139.426 54.2909 139.579 54.7606 139.579 55.3022C139.579 55.7381 139.486 56.1444 139.299 56.521C139.117 56.8934 138.891 57.1812 138.62 57.3843C138.349 57.5874 138.009 57.7419 137.598 57.8477C137.192 57.9492 136.693 58 136.1 58H132.552ZM133.783 52.6045H135.795C136.341 52.6045 136.733 52.5685 136.97 52.4966C137.283 52.4035 137.518 52.249 137.674 52.0332C137.835 51.8174 137.916 51.5465 137.916 51.2207C137.916 50.9118 137.841 50.641 137.693 50.4082C137.545 50.1712 137.334 50.0104 137.059 49.9258C136.784 49.8369 136.312 49.7925 135.643 49.7925H133.783V52.6045ZM133.783 56.9019H136.1C136.498 56.9019 136.777 56.887 136.938 56.8574C137.222 56.8066 137.458 56.722 137.649 56.6035C137.839 56.485 137.996 56.3136 138.119 56.0894C138.241 55.8608 138.303 55.5985 138.303 55.3022C138.303 54.9552 138.214 54.6548 138.036 54.4009C137.858 54.1427 137.611 53.9629 137.293 53.8613C136.98 53.7555 136.528 53.7026 135.935 53.7026H133.783V56.9019ZM142.002 54.6294C142.002 53.381 142.349 52.4564 143.043 51.8555C143.623 51.3561 144.33 51.1064 145.163 51.1064C146.09 51.1064 146.848 51.4111 147.436 52.0205C148.024 52.6257 148.318 53.4635 148.318 54.5342C148.318 55.4017 148.187 56.0851 147.925 56.5845C147.666 57.0796 147.288 57.4647 146.788 57.7397C146.293 58.0148 145.752 58.1523 145.163 58.1523C144.22 58.1523 143.456 57.8498 142.872 57.2446C142.292 56.6395 142.002 55.7677 142.002 54.6294ZM143.176 54.6294C143.176 55.4927 143.365 56.1401 143.741 56.5718C144.118 56.9992 144.592 57.2129 145.163 57.2129C145.73 57.2129 146.202 56.9971 146.579 56.5654C146.955 56.1338 147.144 55.4757 147.144 54.5913C147.144 53.7576 146.953 53.1271 146.572 52.6997C146.196 52.2681 145.726 52.0522 145.163 52.0522C144.592 52.0522 144.118 52.266 143.741 52.6934C143.365 53.1208 143.176 53.7661 143.176 54.6294ZM150.507 55.9878L151.637 55.8101C151.7 56.2629 151.876 56.6099 152.163 56.8511C152.455 57.0923 152.862 57.2129 153.382 57.2129C153.907 57.2129 154.296 57.1071 154.55 56.8955C154.804 56.6797 154.931 56.4279 154.931 56.1401C154.931 55.882 154.819 55.6789 154.595 55.5308C154.438 55.4292 154.049 55.3001 153.427 55.1436C152.589 54.932 152.007 54.75 151.681 54.5977C151.359 54.4411 151.114 54.2274 150.945 53.9565C150.78 53.6815 150.697 53.3789 150.697 53.0488C150.697 52.7484 150.765 52.4712 150.9 52.2173C151.04 51.9591 151.228 51.7454 151.465 51.5762C151.643 51.445 151.884 51.335 152.189 51.2461C152.498 51.153 152.828 51.1064 153.179 51.1064C153.708 51.1064 154.171 51.1826 154.569 51.335C154.971 51.4873 155.267 51.6947 155.458 51.957C155.648 52.2152 155.78 52.5622 155.851 52.998L154.734 53.1504C154.684 52.8034 154.535 52.5326 154.29 52.3379C154.049 52.1432 153.706 52.0459 153.262 52.0459C152.737 52.0459 152.362 52.1326 152.138 52.3062C151.914 52.4797 151.802 52.6828 151.802 52.9155C151.802 53.0636 151.848 53.1969 151.941 53.3154C152.034 53.4382 152.18 53.5397 152.379 53.6201C152.494 53.6624 152.83 53.7598 153.389 53.9121C154.197 54.1279 154.76 54.3057 155.077 54.4453C155.399 54.5807 155.65 54.7796 155.832 55.042C156.014 55.3044 156.105 55.6302 156.105 56.0195C156.105 56.4004 155.993 56.7601 155.769 57.0986C155.549 57.4329 155.229 57.6932 154.81 57.8794C154.392 58.0614 153.918 58.1523 153.389 58.1523C152.513 58.1523 151.844 57.9704 151.383 57.6064C150.926 57.2425 150.634 56.703 150.507 55.9878ZM161.258 56.978L161.423 57.9873C161.102 58.055 160.814 58.0889 160.56 58.0889C160.145 58.0889 159.824 58.0233 159.595 57.8921C159.367 57.7609 159.206 57.5895 159.113 57.3779C159.02 57.1621 158.973 56.7114 158.973 56.0259V52.1475H158.135V51.2588H158.973V49.5894L160.109 48.9038V51.2588H161.258V52.1475H160.109V56.0894C160.109 56.4152 160.129 56.6247 160.167 56.7178C160.209 56.8109 160.275 56.8849 160.363 56.9399C160.456 56.995 160.588 57.0225 160.757 57.0225C160.884 57.0225 161.051 57.0076 161.258 56.978ZM163.257 54.6294C163.257 53.381 163.604 52.4564 164.298 51.8555C164.877 51.3561 165.584 51.1064 166.418 51.1064C167.345 51.1064 168.102 51.4111 168.69 52.0205C169.278 52.6257 169.573 53.4635 169.573 54.5342C169.573 55.4017 169.441 56.0851 169.179 56.5845C168.921 57.0796 168.542 57.4647 168.043 57.7397C167.548 58.0148 167.006 58.1523 166.418 58.1523C165.474 58.1523 164.71 57.8498 164.126 57.2446C163.547 56.6395 163.257 55.7677 163.257 54.6294ZM164.431 54.6294C164.431 55.4927 164.619 56.1401 164.996 56.5718C165.373 56.9992 165.846 57.2129 166.418 57.2129C166.985 57.2129 167.457 56.9971 167.833 56.5654C168.21 56.1338 168.398 55.4757 168.398 54.5913C168.398 53.7576 168.208 53.1271 167.827 52.6997C167.45 52.2681 166.981 52.0522 166.418 52.0522C165.846 52.0522 165.373 52.266 164.996 52.6934C164.619 53.1208 164.431 53.7661 164.431 54.6294ZM172.218 58V51.2588H173.247V52.2173C173.742 51.4767 174.457 51.1064 175.392 51.1064C175.798 51.1064 176.171 51.1805 176.509 51.3286C176.852 51.4725 177.108 51.6629 177.277 51.8999C177.447 52.1369 177.565 52.4183 177.633 52.7441C177.675 52.9557 177.696 53.326 177.696 53.855V58H176.554V53.8994C176.554 53.4339 176.509 53.0869 176.42 52.8584C176.332 52.6257 176.173 52.4416 175.944 52.3062C175.72 52.1665 175.456 52.0967 175.151 52.0967C174.664 52.0967 174.243 52.2511 173.888 52.5601C173.536 52.869 173.361 53.4551 173.361 54.3184V58H172.218Z" fill="white"/>
<path d="M11.2969 29.5156C9.97396 29.5156 8.70312 29.2552 7.48438 28.7344C6.27604 28.2135 5.20312 27.4635 4.26562 26.4844C3.33854 25.5052 2.59896 24.3125 2.04688 22.9062C1.49479 21.4896 1.21875 19.8958 1.21875 18.125C1.21875 16.3542 1.48958 14.75 2.03125 13.3125C2.57292 11.8646 3.32292 10.6198 4.28125 9.57812C5.22917 8.54688 6.34896 7.75 7.64062 7.1875C8.93229 6.625 10.3125 6.34375 11.7812 6.34375C12.875 6.34375 13.8646 6.47917 14.75 6.75C15.6354 7.02083 16.4792 7.40104 17.2812 7.89062L17.9219 6.82812H19.1719L19.3125 14.7344H18.0312C17.8646 13.9635 17.6146 13.1302 17.2812 12.2344C16.9479 11.3281 16.5573 10.5625 16.1094 9.9375C15.6094 9.22917 15.0156 8.67708 14.3281 8.28125C13.6406 7.875 12.8542 7.67188 11.9688 7.67188C10.9583 7.67188 10.0156 7.89583 9.14062 8.34375C8.27604 8.79167 7.52604 9.45312 6.89062 10.3281C6.28646 11.1719 5.8125 12.2448 5.46875 13.5469C5.125 14.849 4.95312 16.3021 4.95312 17.9062C4.95312 19.3229 5.13021 20.625 5.48438 21.8125C5.84896 22.9896 6.36458 24.026 7.03125 24.9219C7.69792 25.8073 8.48438 26.5 9.39062 27C10.3073 27.5 11.3281 27.75 12.4531 27.75C13.2969 27.75 14.0729 27.6198 14.7812 27.3594C15.4896 27.0885 16.1042 26.7344 16.625 26.2969C17.1458 25.8385 17.6042 25.3177 18 24.7344C18.3958 24.151 18.7188 23.5156 18.9688 22.8281L20.1406 23.3906C19.2448 25.5885 18.0573 27.1615 16.5781 28.1094C15.099 29.0469 13.3385 29.5156 11.2969 29.5156ZM38.6231 21.1406C38.6231 22.224 38.4513 23.2917 38.1075 24.3438C37.7638 25.3854 37.2742 26.2708 36.6388 27C35.92 27.8333 35.0867 28.4531 34.1388 28.8594C33.1908 29.2656 32.1283 29.4688 30.9513 29.4688C29.9721 29.4688 29.0398 29.2865 28.1544 28.9219C27.269 28.5469 26.4825 28.0052 25.795 27.2969C25.1179 26.599 24.5763 25.75 24.17 24.75C23.7742 23.7396 23.5763 22.6094 23.5763 21.3594C23.5763 18.9531 24.2742 16.9844 25.67 15.4531C27.0763 13.9219 28.9148 13.1562 31.1856 13.1562C33.3419 13.1562 35.1179 13.8854 36.5138 15.3438C37.92 16.7917 38.6231 18.724 38.6231 21.1406ZM35.3888 21.1719C35.3888 20.3906 35.3106 19.5677 35.1544 18.7031C34.9981 17.8281 34.7638 17.0885 34.4513 16.4844C34.1179 15.8385 33.6804 15.3229 33.1388 14.9375C32.5971 14.5417 31.9356 14.3438 31.1544 14.3438C30.3523 14.3438 29.6648 14.5417 29.0919 14.9375C28.5294 15.3333 28.071 15.875 27.7169 16.5625C27.3835 17.1979 27.1492 17.9219 27.0138 18.7344C26.8783 19.5469 26.8106 20.3333 26.8106 21.0938C26.8106 22.0938 26.8888 23.0208 27.045 23.875C27.2117 24.7188 27.4721 25.474 27.8263 26.1406C28.1804 26.8073 28.6231 27.3333 29.1544 27.7188C29.696 28.0938 30.3627 28.2812 31.1544 28.2812C32.4565 28.2812 33.4877 27.651 34.2481 26.3906C35.0085 25.1302 35.3888 23.3906 35.3888 21.1719ZM54.9806 29H42.5119V28.1719L51.2306 14.8594H49.0744C48.1681 14.8594 47.4598 14.875 46.9494 14.9062C46.439 14.9375 45.9702 15.0417 45.5431 15.2188C45.2515 15.3333 44.9754 15.6615 44.715 16.2031C44.465 16.7448 44.2463 17.4531 44.0588 18.3281H43.1056V13.5938H54.8869V14.2344L46.0275 27.7344C46.4025 27.7448 46.814 27.7552 47.2619 27.7656C47.7098 27.7656 48.1942 27.7656 48.715 27.7656C49.1317 27.7656 49.564 27.7604 50.0119 27.75C50.4702 27.7396 51.0535 27.7135 51.7619 27.6719C52.1785 27.651 52.491 27.5104 52.6994 27.25C52.9181 26.9896 53.0848 26.6927 53.1994 26.3594C53.314 26.0573 53.4494 25.6406 53.6056 25.1094C53.7723 24.5781 53.9181 24.0625 54.0431 23.5625H54.9806V29ZM57.7444 34.0312C57.7444 33.5104 57.885 33.0833 58.1662 32.75C58.4579 32.4271 58.8173 32.2656 59.2444 32.2656C59.5777 32.2656 59.8642 32.3281 60.1037 32.4531C60.3433 32.5781 60.5569 32.7396 60.7444 32.9375C60.9006 33.0938 61.0673 33.3073 61.2444 33.5781C61.4215 33.849 61.5621 34.0729 61.6662 34.25C62.1871 33.9688 62.8069 33.2344 63.5256 32.0469C64.2548 30.8594 64.7808 29.8177 65.1037 28.9219C64.1142 26.4531 63.2183 24.2448 62.4162 22.2969C61.6142 20.349 60.7756 18.3333 59.9006 16.25C59.7027 15.7708 59.3694 15.401 58.9006 15.1406C58.4319 14.8698 57.9631 14.6979 57.4944 14.625V13.5938H64.5256V14.6875C64.2131 14.6979 63.8381 14.7656 63.4006 14.8906C62.9631 15.0052 62.7444 15.1406 62.7444 15.2969C62.7444 15.3594 62.7652 15.4635 62.8069 15.6094C62.859 15.7552 62.9162 15.9062 62.9787 16.0625C63.3746 17.0938 63.9787 18.5833 64.7912 20.5312C65.6037 22.4688 66.234 24.0208 66.6819 25.1875C67.1506 24.0729 67.635 22.9219 68.135 21.7344C68.6454 20.5365 69.2131 19.125 69.8381 17.5C69.911 17.3021 70.0152 17.0312 70.1506 16.6875C70.286 16.3333 70.3537 16.0312 70.3537 15.7812C70.3537 15.5104 70.1142 15.2604 69.635 15.0312C69.1662 14.7917 68.7183 14.6458 68.2912 14.5938V13.5938H74.01V14.5625C73.6975 14.6146 73.286 14.7969 72.7756 15.1094C72.2652 15.4115 71.885 15.8438 71.635 16.4062C70.3954 19.2812 69.2912 21.901 68.3225 24.2656C67.3642 26.6302 66.635 28.3698 66.135 29.4844C65.4787 30.9427 64.8902 32.0781 64.3694 32.8906C63.859 33.7135 63.359 34.3594 62.8694 34.8281C62.3902 35.2656 61.9527 35.5573 61.5569 35.7031C61.1715 35.8594 60.7704 35.9375 60.3537 35.9375C59.5412 35.9375 58.9006 35.7448 58.4319 35.3594C57.9735 34.974 57.7444 34.5312 57.7444 34.0312ZM109.584 29H100.381V27.8906C100.631 27.8698 100.991 27.8385 101.459 27.7969C101.939 27.7552 102.267 27.6927 102.444 27.6094C102.756 27.4844 102.985 27.2969 103.131 27.0469C103.277 26.7865 103.35 26.4531 103.35 26.0469V18.1562H92.9281V25.875C92.9281 26.2396 92.9854 26.5469 93.1 26.7969C93.225 27.0469 93.4646 27.2656 93.8187 27.4531C93.9958 27.5469 94.3083 27.6406 94.7562 27.7344C95.2146 27.8281 95.574 27.8802 95.8344 27.8906V29H86.6312V27.8906C86.8812 27.8698 87.2406 27.8385 87.7094 27.7969C88.1885 27.7552 88.5167 27.6927 88.6937 27.6094C89.0062 27.4844 89.2354 27.2969 89.3812 27.0469C89.5271 26.7865 89.6 26.4531 89.6 26.0469V10.0469C89.6 9.71354 89.5323 9.41146 89.3969 9.14062C89.2615 8.85938 89.0271 8.64062 88.6937 8.48438C88.4125 8.34896 88.0687 8.22917 87.6625 8.125C87.2667 8.02083 86.9229 7.95833 86.6312 7.9375V6.82812H95.8344V7.9375C95.5427 7.94792 95.1833 7.99479 94.7562 8.07812C94.3396 8.16146 94.0271 8.23958 93.8187 8.3125C93.4646 8.4375 93.225 8.64583 93.1 8.9375C92.9854 9.22917 92.9281 9.54688 92.9281 9.89062V16.7656H103.35V10.0469C103.35 9.71354 103.282 9.41146 103.147 9.14062C103.011 8.85938 102.777 8.64062 102.444 8.48438C102.162 8.34896 101.819 8.22917 101.412 8.125C101.017 8.02083 100.673 7.95833 100.381 7.9375V6.82812H109.584V7.9375C109.293 7.94792 108.933 7.99479 108.506 8.07812C108.09 8.16146 107.777 8.23958 107.569 8.3125C107.215 8.4375 106.975 8.64583 106.85 8.9375C106.735 9.22917 106.678 9.54688 106.678 9.89062V25.875C106.678 26.2396 106.735 26.5469 106.85 26.7969C106.975 27.0469 107.215 27.2656 107.569 27.4531C107.746 27.5469 108.058 27.6406 108.506 27.7344C108.965 27.8281 109.324 27.8802 109.584 27.8906V29ZM129.254 21.1406C129.254 22.224 129.082 23.2917 128.739 24.3438C128.395 25.3854 127.905 26.2708 127.27 27C126.551 27.8333 125.718 28.4531 124.77 28.8594C123.822 29.2656 122.76 29.4688 121.582 29.4688C120.603 29.4688 119.671 29.2865 118.786 28.9219C117.9 28.5469 117.114 28.0052 116.426 27.2969C115.749 26.599 115.207 25.75 114.801 24.75C114.405 23.7396 114.207 22.6094 114.207 21.3594C114.207 18.9531 114.905 16.9844 116.301 15.4531C117.707 13.9219 119.546 13.1562 121.817 13.1562C123.973 13.1562 125.749 13.8854 127.145 15.3438C128.551 16.7917 129.254 18.724 129.254 21.1406ZM126.02 21.1719C126.02 20.3906 125.942 19.5677 125.786 18.7031C125.629 17.8281 125.395 17.0885 125.082 16.4844C124.749 15.8385 124.312 15.3229 123.77 14.9375C123.228 14.5417 122.567 14.3438 121.786 14.3438C120.984 14.3438 120.296 14.5417 119.723 14.9375C119.161 15.3333 118.702 15.875 118.348 16.5625C118.015 17.1979 117.78 17.9219 117.645 18.7344C117.51 19.5469 117.442 20.3333 117.442 21.0938C117.442 22.0938 117.52 23.0208 117.676 23.875C117.843 24.7188 118.103 25.474 118.457 26.1406C118.812 26.8073 119.254 27.3333 119.786 27.7188C120.327 28.0938 120.994 28.2812 121.786 28.2812C123.088 28.2812 124.119 27.651 124.879 26.3906C125.64 25.1302 126.02 23.3906 126.02 21.1719ZM149.924 28.7188L144.909 29.0625L144.674 28.8438V26.8906H144.581C144.331 27.151 144.049 27.4323 143.737 27.7344C143.424 28.026 143.065 28.2917 142.659 28.5312C142.19 28.8125 141.737 29.026 141.299 29.1719C140.862 29.3177 140.242 29.3906 139.44 29.3906C138.075 29.3906 137.034 28.9479 136.315 28.0625C135.607 27.1667 135.253 25.8698 135.253 24.1719V16.7969C135.253 16.4219 135.18 16.1094 135.034 15.8594C134.898 15.599 134.695 15.375 134.424 15.1875C134.237 15.0625 134.003 14.974 133.721 14.9219C133.44 14.8594 133.143 14.8177 132.831 14.7969V13.7812L137.971 13.4062L138.206 13.625V24.3281C138.206 25.4427 138.456 26.2812 138.956 26.8438C139.456 27.4062 140.055 27.6875 140.753 27.6875C141.325 27.6875 141.836 27.599 142.284 27.4219C142.732 27.2448 143.107 27.0365 143.409 26.7969C143.69 26.5781 143.935 26.349 144.143 26.1094C144.362 25.8594 144.529 25.6302 144.643 25.4219V16.6875C144.643 16.3438 144.57 16.0417 144.424 15.7812C144.279 15.5104 144.075 15.2812 143.815 15.0938C143.628 14.9688 143.346 14.8958 142.971 14.875C142.607 14.8438 142.195 14.8177 141.737 14.7969V13.7812L147.331 13.4062L147.565 13.625V25.8594C147.565 26.2135 147.638 26.5156 147.784 26.7656C147.93 27.0156 148.133 27.2292 148.393 27.4062C148.581 27.5208 148.805 27.599 149.065 27.6406C149.325 27.6719 149.612 27.6927 149.924 27.7031V28.7188ZM163.907 21.4531C164.334 21.8281 164.662 22.2604 164.891 22.75C165.12 23.2396 165.235 23.8385 165.235 24.5469C165.235 25.974 164.699 27.1406 163.626 28.0469C162.563 28.9531 161.183 29.4062 159.485 29.4062C158.589 29.4062 157.761 29.2448 157.001 28.9219C156.251 28.599 155.714 28.3021 155.391 28.0312L155.079 29.0469H153.907L153.751 23.6875H154.829C154.912 24.0938 155.089 24.5677 155.36 25.1094C155.631 25.651 155.959 26.1406 156.344 26.5781C156.751 27.0365 157.235 27.4219 157.798 27.7344C158.37 28.0469 159.011 28.2031 159.719 28.2031C160.719 28.2031 161.49 27.9792 162.032 27.5312C162.574 27.0729 162.844 26.4219 162.844 25.5781C162.844 25.1406 162.756 24.7656 162.579 24.4531C162.412 24.1302 162.162 23.849 161.829 23.6094C161.485 23.3698 161.063 23.1562 160.563 22.9688C160.063 22.7708 159.506 22.5781 158.891 22.3906C158.402 22.2448 157.855 22.0469 157.251 21.7969C156.657 21.5365 156.146 21.2344 155.719 20.8906C155.261 20.526 154.886 20.0781 154.594 19.5469C154.303 19.0156 154.157 18.3906 154.157 17.6719C154.157 16.4115 154.626 15.3438 155.563 14.4688C156.501 13.5938 157.756 13.1562 159.329 13.1562C159.933 13.1562 160.548 13.2344 161.173 13.3906C161.808 13.5469 162.324 13.7344 162.719 13.9531L163.079 13.1406H164.204L164.438 18.0938H163.36C163.141 16.9896 162.667 16.0938 161.938 15.4062C161.219 14.7083 160.339 14.3594 159.298 14.3594C158.443 14.3594 157.771 14.5729 157.282 15C156.792 15.4271 156.548 15.9427 156.548 16.5469C156.548 17.0156 156.626 17.4062 156.782 17.7188C156.949 18.0312 157.193 18.2969 157.516 18.5156C157.829 18.724 158.219 18.9219 158.688 19.1094C159.167 19.2865 159.756 19.4896 160.454 19.7188C161.141 19.9375 161.787 20.1927 162.391 20.4844C163.006 20.776 163.511 21.099 163.907 21.4531ZM183.186 25.375C182.54 26.6042 181.676 27.5833 180.592 28.3125C179.509 29.0417 178.264 29.4062 176.858 29.4062C175.619 29.4062 174.53 29.1875 173.592 28.75C172.665 28.3125 171.9 27.7188 171.296 26.9688C170.691 26.2188 170.238 25.3438 169.936 24.3438C169.645 23.3438 169.499 22.2865 169.499 21.1719C169.499 20.1719 169.655 19.1927 169.967 18.2344C170.29 17.2656 170.759 16.3958 171.374 15.625C171.967 14.8854 172.702 14.2917 173.577 13.8438C174.462 13.3854 175.452 13.1562 176.546 13.1562C177.671 13.1562 178.634 13.3333 179.436 13.6875C180.238 14.0417 180.889 14.526 181.389 15.1406C181.869 15.724 182.223 16.4115 182.452 17.2031C182.691 17.9948 182.811 18.8542 182.811 19.7812V20.8125H172.608C172.608 21.8229 172.702 22.7396 172.889 23.5625C173.087 24.3854 173.395 25.1094 173.811 25.7344C174.217 26.3385 174.749 26.8177 175.405 27.1719C176.061 27.5156 176.842 27.6875 177.749 27.6875C178.676 27.6875 179.473 27.474 180.139 27.0469C180.816 26.6094 181.467 25.8281 182.092 24.7031L183.186 25.375ZM179.733 19.5C179.733 18.9167 179.681 18.2917 179.577 17.625C179.483 16.9583 179.327 16.401 179.108 15.9531C178.869 15.474 178.54 15.0833 178.124 14.7812C177.707 14.4792 177.171 14.3281 176.514 14.3281C175.421 14.3281 174.509 14.7865 173.78 15.7031C173.061 16.6094 172.671 17.875 172.608 19.5H179.733Z" fill="#F1CDB3"/>
</symbol><symbol id="icon-mail" viewBox="0 0 40 26">
<path d="M39.315 0H0.684964C0.5033 0 0.329077 0.0732456 0.200621 0.203625C0.0721657 0.334003 0 0.510836 0 0.695219V25.3048C0 25.4892 0.0721657 25.666 0.200621 25.7964C0.329077 25.9268 0.5033 26 0.684964 26H39.315C39.4967 26 39.6709 25.9268 39.7994 25.7964C39.9278 25.666 40 25.4892 40 25.3048V0.695219C40 0.510836 39.9278 0.334003 39.7994 0.203625C39.6709 0.0732456 39.4967 0 39.315 0ZM32.5774 15.0331C32.6846 15.5259 32.7954 16.0355 32.6513 16.2882C32.4966 16.5596 31.9966 16.7173 31.5131 16.8699C31.1316 16.9902 30.7373 17.1147 30.3857 17.3212C30.0461 17.5206 29.7523 17.8001 29.4683 18.0704C29.0772 18.4426 28.7079 18.794 28.374 18.794C28.04 18.794 27.6706 18.4425 27.2797 18.0704C26.9956 17.8001 26.7018 17.5205 26.3622 17.3212C26.0107 17.1147 25.6163 16.9903 25.2348 16.8699C24.7513 16.7173 24.2513 16.5596 24.0967 16.2882C23.9526 16.0355 24.0633 15.5259 24.1705 15.0331C24.2584 14.6285 24.3493 14.2103 24.3493 13.7821C24.3493 13.354 24.2584 12.9356 24.1705 12.5311C24.0633 12.0383 23.9526 11.5288 24.0967 11.2759C24.2513 11.0046 24.7513 10.8468 25.2348 10.6942C25.6163 10.5739 26.0107 10.4494 26.3622 10.243C26.7018 10.0435 26.9956 9.76403 27.2797 9.49373C27.6706 9.12165 28.04 8.77015 28.374 8.77015C28.7079 8.77015 29.0773 9.12165 29.4683 9.49373C29.7523 9.76403 30.0461 10.0435 30.3857 10.243C30.7373 10.4493 31.1316 10.5738 31.5131 10.6941C31.9966 10.8467 32.4966 11.0045 32.6512 11.2758C32.7954 11.5286 32.6846 12.0381 32.5774 12.5309C32.4895 12.9354 32.3986 13.3537 32.3986 13.7819C32.3986 14.2102 32.4895 14.6286 32.5774 15.0331ZM30.5975 8.66076C30.5345 8.60237 30.4705 8.54156 30.4053 8.47955C29.8904 7.98955 29.2497 7.3798 28.374 7.3798C27.4982 7.3798 26.8575 7.98955 26.3426 8.47955C26.1045 8.70609 25.8796 8.92013 25.6761 9.03961C25.4574 9.168 25.1518 9.26449 24.8281 9.36655C24.1276 9.58763 23.3336 9.8381 22.9109 10.5797C22.5001 11.3004 22.6768 12.1134 22.8328 12.8307C22.9081 13.1777 22.9794 13.5055 22.9794 13.7821C22.9794 14.0587 22.9081 14.3866 22.8328 14.7336C22.6975 15.3556 22.5473 16.0496 22.7775 16.693L19.9997 19.5464L2.32449 1.39044H37.6748L30.5975 8.66076ZM11.7007 13L1.36993 23.6116V2.38812L11.7007 13ZM12.6635 13.989L19.5124 21.0242C19.5761 21.0896 19.6519 21.1416 19.7356 21.177C19.8192 21.2125 19.9089 21.2308 19.9996 21.2308C20.0902 21.2308 20.18 21.2125 20.2636 21.177C20.3472 21.1416 20.4231 21.0896 20.4868 21.0242L23.6841 17.7398C24.044 17.9494 24.4495 18.0781 24.8281 18.1976C25.1518 18.2997 25.4575 18.3962 25.6761 18.5245C25.8796 18.644 26.1044 18.8581 26.3426 19.0846C26.8575 19.5746 27.4982 20.1844 28.374 20.1844C29.2496 20.1844 29.8904 19.5746 30.4053 19.0846C30.6434 18.858 30.8682 18.644 31.0718 18.5244C31.2043 18.4466 31.3691 18.3806 31.5502 18.3179L37.675 24.6094H2.32431L12.6635 13.989ZM32.9664 17.7946C33.3117 17.6108 33.6223 17.3612 33.8371 16.9846C34.2479 16.2639 34.0711 15.4508 33.9151 14.7336C33.8398 14.3866 33.7686 14.0587 33.7686 13.7821C33.7686 13.5055 33.8398 13.1777 33.9151 12.8307C34.0711 12.1134 34.2479 11.3005 33.837 10.5797C33.4142 9.8381 32.6203 9.58763 31.9197 9.36655L31.8559 9.34634L38.6301 2.38738V23.6122L32.9664 17.7946Z" fill="#F1CDB3"/>
<path d="M28.374 10.2424C26.451 10.2424 24.8865 11.8302 24.8865 13.782C24.8865 15.7337 26.451 17.3215 28.374 17.3215C30.297 17.3215 31.8614 15.7337 31.8614 13.782C31.8614 11.8302 30.2969 10.2424 28.374 10.2424ZM28.374 15.9311C27.2064 15.9311 26.2564 14.967 26.2564 13.782C26.2564 12.5969 27.2063 11.6328 28.374 11.6328C29.5416 11.6328 30.4915 12.5969 30.4915 13.782C30.4915 14.967 29.5415 15.9311 28.374 15.9311Z" fill="#F1CDB3"/>
</symbol><symbol id="icon-map" viewBox="0 0 22 32">
<path d="M11 0C4.93471 0 0 4.78519 0 10.6667C0 12.4323 0.455231 14.1829 1.32064 15.7357L10.3985 31.6562C10.5193 31.8685 10.7496 32 11 32C11.2504 32 11.4807 31.8685 11.6015 31.6562L20.6827 15.7304C21.5448 14.1829 22 12.4323 22 10.6666C22 4.78519 17.0653 0 11 0ZM19.4762 15.0905L11 29.9557L2.52714 15.0964C1.77317 13.7435 1.37504 12.2116 1.37504 10.6667C1.37504 5.52019 5.69275 1.33337 11 1.33337C16.3073 1.33337 20.625 5.52025 20.625 10.6667C20.625 12.2116 20.2268 13.7435 19.4762 15.0905Z" fill="#F1CDB3"/>
<path d="M11 5.33329C7.96737 5.33329 5.50005 7.72585 5.50005 10.6666C5.50005 13.6074 7.96737 16 11 16C14.0327 16 16.5 13.6074 16.5 10.6667C16.5 7.72592 14.0327 5.33329 11 5.33329ZM11 14.6667C8.72534 14.6667 6.87502 12.8724 6.87502 10.6667C6.87502 8.46092 8.72534 6.66667 11 6.66667C13.2747 6.66667 15.125 8.46092 15.125 10.6667C15.125 12.8724 13.2747 14.6667 11 14.6667Z" fill="#F1CDB3"/>
</symbol><symbol id="icon-medicines" viewBox="0 0 60 60">
<path d="M59.6564 15.8985L44.1014 0.343125C43.6438 -0.114375 42.902 -0.114375 42.444 0.343125L38.3014 4.48547C38.0817 4.70525 37.9582 5.00331 37.9582 5.3141C37.9582 5.62489 38.0817 5.92295 38.3014 6.14273L43.2225 11.0637L38.5636 15.7226L31.3925 8.55152C30.9348 8.09391 30.1929 8.09402 29.7351 8.55152L24.9767 13.3099C24.757 13.5297 24.6336 13.8278 24.6336 14.1386C24.6336 14.4493 24.757 14.7474 24.9767 14.9672L26.488 16.4784L7.06509 35.902C5.28032 37.6868 5.28032 40.5911 7.06509 42.3762L8.5563 43.8674L5.82208 46.6016C5.71325 46.7104 5.62692 46.8396 5.56802 46.9818C5.50912 47.124 5.47881 47.2763 5.47881 47.4302C5.47881 47.5841 5.50912 47.7365 5.56802 47.8787C5.62692 48.0209 5.71325 48.1501 5.82208 48.2589L7.95278 50.3897L0.343213 57.9991C-0.114404 58.4568 -0.114404 59.1988 0.343213 59.6565C0.57208 59.8854 0.871963 59.9998 1.17185 59.9998C1.47173 59.9998 1.77173 59.8854 2.00048 59.6565L9.61017 52.0468L11.741 54.1777C11.9608 54.3974 12.2588 54.5208 12.5696 54.5208C12.8804 54.5208 13.1785 54.3974 13.3983 54.1777L16.1325 51.4434L17.6237 52.9347C18.4883 53.7993 19.638 54.2754 20.8608 54.2754C22.0835 54.2754 23.2332 53.7993 24.0978 52.9347L43.5209 33.5116L45.0322 35.0229C45.1409 35.1319 45.2701 35.2183 45.4123 35.2772C45.5545 35.3361 45.7069 35.3663 45.8608 35.3661C46.1608 35.3661 46.4606 35.2518 46.6895 35.0229L51.4477 30.2645C51.6675 30.0447 51.7909 29.7466 51.7909 29.4359C51.7909 29.1251 51.6675 28.827 51.4477 28.6072L44.2767 21.4362L48.9356 16.7773L53.8565 21.6982C53.9652 21.8072 54.0944 21.8936 54.2366 21.9525C54.3788 22.0114 54.5312 22.0416 54.6852 22.0414C54.9852 22.0414 55.2849 21.9271 55.5138 21.6982L59.6563 17.5557C60.1141 17.0982 60.1141 16.3562 59.6564 15.8985ZM24.7358 21.546L30.1576 26.9678C30.2663 27.0768 30.3954 27.1632 30.5376 27.2221C30.6799 27.281 30.8323 27.3112 30.9862 27.311C31.2862 27.311 31.586 27.1966 31.8149 26.9678C32.2725 26.5102 32.2725 25.7681 31.8149 25.3105L26.3931 19.8887L28.1454 18.1364L38.234 28.2251L32.8747 33.5844L22.7859 23.4956L24.7358 21.546ZM12.5696 51.6916L8.30798 47.4301L10.2137 45.5246L14.4751 49.7861L12.5696 51.6916ZM22.4403 51.2773C21.5694 52.1482 20.152 52.1483 19.2811 51.2773L8.72235 40.7187C7.8513 39.8476 7.8513 38.4302 8.72235 37.5593L10.3916 35.8901L13.2772 38.7757C13.5061 39.0046 13.8059 39.1189 14.1058 39.1189C14.4057 39.1189 14.7057 39.0046 14.9345 38.7757C15.3921 38.3181 15.3921 37.5761 14.9345 37.1183L12.0488 34.2327L13.9774 32.304L19.3991 37.7257C19.6279 37.9546 19.9278 38.0689 20.2277 38.0689C20.5276 38.0689 20.8276 37.9545 21.0563 37.7257C21.514 37.2681 21.514 36.5261 21.0563 36.0684L15.6345 30.6466L17.5632 28.718L20.4488 31.6036C20.6777 31.8325 20.9776 31.9468 21.2775 31.9468C21.5774 31.9468 21.8774 31.8325 22.1061 31.6036C22.5637 31.146 22.5637 30.4039 22.1061 29.9462L19.2205 27.0606L21.1281 25.153L31.2168 35.2417L23.596 42.8626C23.1384 43.3202 23.1384 44.0623 23.596 44.52C23.8249 44.7489 24.1248 44.8632 24.4247 44.8632C24.7245 44.8632 25.0245 44.7487 25.2533 44.52L32.8741 36.8991L34.8459 38.8709L22.4403 51.2773ZM36.5041 37.2137L34.5323 35.2417L39.8917 29.8822L41.8634 31.854L36.5041 37.2137ZM48.9618 29.4359L45.8608 32.5369L27.4627 14.1389L30.5638 11.0379L48.9618 29.4359ZM42.6195 19.7789L40.2208 17.3802L44.8797 12.7212L47.2784 15.1199L42.6195 19.7789ZM54.6855 19.2123L40.7875 5.31422L43.2727 2.82902L57.1707 16.727L54.6855 19.2123Z" fill="#F1CDB3"/>
<path d="M22.3156 46.7207C22.3016 46.6457 22.2781 46.5719 22.2488 46.5016C22.2197 46.4306 22.1836 46.3627 22.141 46.2988C22.0988 46.2344 22.0496 46.1746 21.9957 46.1207C21.9418 46.0668 21.882 46.0176 21.8176 45.9754C21.7537 45.9328 21.6858 45.8967 21.6148 45.8676C21.5445 45.8383 21.4707 45.816 21.3957 45.8008C21.2449 45.7703 21.0895 45.7703 20.9387 45.8008C20.8637 45.816 20.7898 45.8383 20.7195 45.8676C20.648 45.8969 20.5801 45.9332 20.5168 45.9754C20.4523 46.0176 20.3926 46.0668 20.3387 46.1207C20.2848 46.1746 20.2355 46.2344 20.1934 46.2988C20.1512 46.362 20.1148 46.4301 20.0855 46.5016C20.0562 46.5719 20.0328 46.6457 20.0187 46.7207C20.0035 46.7957 19.9953 46.8731 19.9953 46.9492C19.9953 47.0254 20.0035 47.1028 20.0187 47.1789C20.0328 47.2528 20.0562 47.3266 20.0855 47.3981C20.1148 47.4684 20.1512 47.5364 20.1934 47.5996C20.2355 47.6641 20.2848 47.7239 20.3387 47.7778C20.4474 47.8871 20.5769 47.9735 20.7195 48.0321C20.8613 48.0913 21.0135 48.1216 21.1672 48.1211C21.3208 48.1216 21.473 48.0913 21.6148 48.0321C21.7575 47.9735 21.887 47.8871 21.9957 47.7778C22.0496 47.7239 22.0988 47.6641 22.141 47.5996C22.1832 47.5364 22.2195 47.4684 22.2488 47.3981C22.2781 47.3266 22.3016 47.2528 22.3156 47.1789C22.3309 47.1028 22.3391 47.0254 22.3391 46.9492C22.3391 46.8731 22.3309 46.7957 22.3156 46.7207Z" fill="#F1CDB3"/>
</symbol><symbol id="icon-pet-food" viewBox="0 0 60 60">
<path d="M52.8978 25.4978L47.1429 9.7473V1.42852C47.1429 0.639609 46.5032 0 45.7144 0H14.2858C13.4969 0 12.8573 0.639727 12.8573 1.42852V9.74719L7.10214 25.4978C6.41927 27.3636 6.07039 29.335 6.07147 31.3219V55.0765C6.07147 57.7913 8.28011 60 10.995 60H49.005C51.7199 60 53.9285 57.7913 53.9285 55.0765V31.3219C53.9285 29.329 53.5817 27.3694 52.8978 25.4978ZM15.7142 2.85715H44.2857V8.57145H15.7142V2.85715ZM51.0715 50.1321H30.9077C30.1188 50.1321 29.4792 50.7718 29.4792 51.5606C29.4792 52.3495 30.1189 52.9891 30.9077 52.9891H51.0715V55.0763C51.0715 56.2157 50.1445 57.1427 49.005 57.1427H10.995C9.85558 57.1427 8.92862 56.2158 8.92862 55.0763V31.3219C8.92774 29.6695 9.21788 28.03 9.78573 26.4783L15.2848 11.4286H44.7152L50.2142 26.4783C50.7821 28.03 51.0722 29.6695 51.0714 31.3219L51.0715 50.1321Z" fill="#F1CDB3"/>
<path d="M35.6169 33.805C35.1505 30.8772 32.6078 28.632 29.5505 28.632C26.4932 28.632 23.9504 30.8772 23.484 33.805C21.067 34.7989 19.4857 37.2756 19.6899 39.9659C19.9175 42.9637 22.3506 45.392 25.349 45.6148C26.5071 45.7011 27.6572 45.4628 28.6751 44.9259C29.2315 44.6328 29.8697 44.6326 30.4256 44.926C31.3085 45.3908 32.2914 45.6331 33.2891 45.632C33.4429 45.632 33.5974 45.6263 33.7516 45.6149C36.7502 45.3923 39.1832 42.9638 39.411 39.966C39.6152 37.2756 38.0339 34.7989 35.6169 33.805ZM36.562 39.7495C36.4405 41.35 35.1415 42.6466 33.5402 42.7655C32.9176 42.8126 32.3013 42.6851 31.7586 42.3986C31.0781 42.0394 30.3201 41.8517 29.5506 41.8517C28.781 41.8517 28.0231 42.0394 27.3425 42.3986C26.7999 42.6849 26.1849 42.8123 25.5608 42.7655C23.9597 42.6467 22.6606 41.3501 22.5391 39.7495C22.4143 38.1062 23.5296 36.6124 25.1331 36.2746C25.4588 36.206 25.7503 36.0259 25.9573 35.7653C26.1643 35.5047 26.2739 35.18 26.2671 34.8473L26.2648 34.775C26.2648 32.9632 27.7386 31.4893 29.5505 31.4893C31.3623 31.4893 32.8362 32.9632 32.8362 34.7698L32.834 34.8473C32.827 35.1801 32.9366 35.5048 33.1436 35.7654C33.3507 36.026 33.6423 36.2061 33.968 36.2746C35.5717 36.6124 36.6868 38.1062 36.562 39.7495Z" fill="#F1CDB3"/>
<path d="M29.5506 25.7751C32.1108 25.7751 34.1934 23.6924 34.1934 21.1322C34.1934 18.572 32.1108 16.4893 29.5506 16.4893C26.9904 16.4893 24.9077 18.5721 24.9077 21.1322C24.9077 23.6923 26.9906 25.7751 29.5506 25.7751ZM29.5506 19.3465C30.5353 19.3465 31.3363 20.1475 31.3363 21.1322C31.3363 22.1169 30.5353 22.9179 29.5506 22.9179C28.5659 22.9179 27.7649 22.1169 27.7649 21.1322C27.7649 20.1475 28.566 19.3465 29.5506 19.3465Z" fill="#F1CDB3"/>
<path d="M24.1935 26.6561C24.1935 24.0959 22.1107 22.0132 19.5506 22.0132C16.9905 22.0132 14.9078 24.096 14.9078 26.6561C14.9078 29.2162 16.9904 31.2989 19.5506 31.2989C22.1108 31.2989 24.1935 29.2162 24.1935 26.6561ZM19.5506 28.4418C18.5659 28.4418 17.7649 27.6408 17.7649 26.6561C17.7649 25.6714 18.5659 24.8704 19.5506 24.8704C20.5353 24.8704 21.3363 25.6714 21.3363 26.6561C21.3363 27.6408 20.5352 28.4418 19.5506 28.4418Z" fill="#F1CDB3"/>
<path d="M39.5506 22.0131C36.9904 22.0131 34.9077 24.0959 34.9077 26.656C34.9077 29.216 36.9906 31.2988 39.5506 31.2988C42.1107 31.2988 44.1934 29.2162 44.1934 26.656C44.1934 24.0958 42.1107 22.0131 39.5506 22.0131ZM39.5506 28.4418C38.5658 28.4418 37.7649 27.6408 37.7649 26.6561C37.7649 25.6714 38.5659 24.8704 39.5506 24.8704C40.5353 24.8704 41.3363 25.6714 41.3363 26.6561C41.3363 27.6408 40.5353 28.4418 39.5506 28.4418Z" fill="#F1CDB3"/>
<path d="M24.6934 50.1322H24.3465C23.5576 50.1322 22.918 50.7719 22.918 51.5607C22.918 52.3496 23.5577 52.9892 24.3465 52.9892H24.6934C25.4823 52.9892 26.1219 52.3495 26.1219 51.5607C26.122 50.7719 25.4824 50.1322 24.6934 50.1322Z" fill="#F1CDB3"/>
</symbol><symbol id="icon-pets-arrow" viewBox="0 0 10 11">
<path d="M9.04102 6.08789L0.0078125 10.7852V9.44727L7.51758 5.53125L0.0078125 1.625V0.287109L9.04102 4.98438V6.08789Z"/>
</symbol><symbol id="icon-pets-double-arrow" viewBox="0 0 25 11">
<path d="M10.0055 6.08789L0.972265 10.7852V9.44727L8.48203 5.53125L0.972265 1.625V0.287109L10.0055 4.98438V6.08789ZM24.0766 6.08789L15.0434 10.7852V9.44727L22.5531 5.53125L15.0434 1.625V0.287109L24.0766 4.98438V6.08789Z"/>
</symbol><symbol id="icon-phone" viewBox="0 0 40 32">
<path d="M39.9461 8.89543L37.5102 2.9049C37.4685 2.80251 37.4043 2.71139 37.3226 2.63868C37.2408 2.56598 37.1437 2.51367 37.0389 2.48585L34.111 1.70799C25.5388 -0.569376 14.4609 -0.569281 5.88906 1.70799L2.96105 2.48585C2.85626 2.51367 2.75918 2.56598 2.67743 2.63868C2.59568 2.71139 2.53147 2.80251 2.48984 2.9049L0.0539764 8.89543C-0.0131281 9.06038 -0.0178273 9.24503 0.0407965 9.41333L1.01509 12.2089C1.07166 12.3713 1.18339 12.5075 1.32986 12.5925C1.47633 12.6775 1.64776 12.7056 1.8128 12.6717L11.0692 10.7747C11.2084 10.7462 11.3359 10.675 11.4348 10.5706C11.5337 10.4661 11.5993 10.3334 11.623 10.19L12.4245 5.32594C16.8365 4.18994 23.1635 4.18994 27.5753 5.32594L28.3769 10.19C28.4006 10.3335 28.4662 10.4663 28.5651 10.5707C28.664 10.6751 28.7915 10.7463 28.9307 10.7748L38.187 12.6718C38.3521 12.7056 38.5234 12.6774 38.6699 12.5924C38.8164 12.5075 38.9281 12.3714 38.9848 12.209L39.9592 9.41343C40.0178 9.2451 40.0131 9.06043 39.9461 8.89543ZM2.13193 11.1412L1.63183 9.70624L10.5973 7.78606L10.321 9.46295L2.13193 11.1412ZM11.6222 4.0568C11.4935 4.09314 11.3777 4.16636 11.2883 4.26784C11.1989 4.36933 11.1396 4.49486 11.1174 4.62969L10.848 6.26453L1.85991 8.1896L3.65015 3.78707L6.2409 3.09877C14.5991 0.878304 25.4007 0.878208 33.7593 3.09877L36.35 3.78707L38.1403 8.1896L29.1522 6.26453L28.8828 4.62969C28.8606 4.49487 28.8013 4.36936 28.7119 4.26788C28.6224 4.1664 28.5066 4.09318 28.378 4.0568C23.6016 2.70615 16.3984 2.70615 11.6222 4.0568ZM37.8681 11.1412L29.6792 9.46295L29.4028 7.78606L38.3682 9.70624L37.8681 11.1412Z" fill="#F1CDB3"/>
<path d="M33.2901 13.1186C33.261 12.9842 33.1948 12.8612 33.0995 12.7643C33.0041 12.6673 32.8836 12.6005 32.7522 12.5717L27.9776 11.526L27.3764 7.51395C27.351 7.34431 27.2672 7.18959 27.1401 7.07781C27.013 6.96603 26.851 6.90458 26.6835 6.90458H24.814V5.96398C24.814 5.56724 24.5002 5.2456 24.1129 5.2456C23.7257 5.2456 23.4119 5.56724 23.4119 5.96398V6.90458H16.5882V5.96398C16.5882 5.56724 16.2744 5.2456 15.8871 5.2456C15.4999 5.2456 15.1861 5.56724 15.1861 5.96398V6.90458H13.3166C13.1491 6.90458 12.9871 6.96603 12.86 7.07781C12.7329 7.18959 12.6491 7.34431 12.6237 7.51395L12.0224 11.526L7.24791 12.5717C7.11654 12.6005 6.996 12.6673 6.90063 12.7643C6.80527 12.8612 6.73908 12.9842 6.70996 13.1186L3.46796 28.0878C3.45692 28.1389 3.45134 28.1911 3.45132 28.2434V31.2816C3.45132 31.4721 3.52519 31.6549 3.65666 31.7896C3.78814 31.9243 3.96645 32 4.15239 32H35.8477C36.0336 32 36.212 31.9243 36.3434 31.7896C36.4749 31.6549 36.5488 31.4721 36.5488 31.2816V28.2434C36.5488 28.1911 36.5432 28.1389 36.5321 28.0878L33.2901 13.1186ZM7.98131 13.8802L12.7885 12.8273C12.9276 12.7968 13.0544 12.7238 13.152 12.6178C13.2496 12.5118 13.3134 12.3779 13.335 12.2338L13.9183 8.34134H26.0819L26.6651 12.2338C26.6867 12.3779 26.7505 12.5118 26.8481 12.6178C26.9457 12.7238 27.0725 12.7968 27.2115 12.8273L32.0189 13.8802L34.9741 27.5251H5.0261L7.98131 13.8802ZM11.7966 28.9618L10.8935 30.5632H9.82782L10.7309 28.9618H11.7966ZM13.416 28.9618H28.6721L27.769 30.5632H12.513L13.416 28.9618ZM4.85345 28.9618H9.11142L8.20836 30.5632H4.85345V28.9618ZM29.3885 30.5632L30.2916 28.9618H35.1466V30.5632H29.3885Z" fill="#F1CDB3"/>
<path d="M20 26.1606C24.1492 26.1606 27.5248 22.7016 27.5248 18.45C27.5248 14.1983 24.1492 10.7393 20 10.7393C15.8509 10.7393 12.4753 14.1983 12.4753 18.45C12.4753 22.7016 15.8509 26.1606 20 26.1606ZM20 12.1761C23.3761 12.1761 26.1227 14.9905 26.1227 18.45C26.1227 21.9094 23.3761 24.7238 20 24.7238C16.624 24.7238 13.8774 21.9094 13.8774 18.45C13.8774 14.9905 16.624 12.1761 20 12.1761Z" fill="#F1CDB3"/>
<path d="M20 21.1847C21.4717 21.1847 22.6691 19.9578 22.6691 18.4497C22.6691 16.9416 21.4717 15.7147 20 15.7147C18.5283 15.7147 17.3309 16.9416 17.3309 18.4497C17.3309 19.9578 18.5283 21.1847 20 21.1847ZM20 17.1514C20.6987 17.1514 21.267 17.7338 21.267 18.4497C21.267 19.1656 20.6987 19.7479 20 19.7479C19.3014 19.7479 18.733 19.1656 18.733 18.4497C18.733 17.7339 19.3014 17.1514 20 17.1514Z" fill="#F1CDB3"/>
</symbol><symbol id="icon-shampoos" viewBox="0 0 60 60">
<path d="M37.1303 17.1814V11.7391C37.1303 11.0188 36.5463 10.4348 35.826 10.4348H34.8477V1.3043C34.8477 0.583945 34.2637 0 33.5434 0H25.0651C24.3448 0 23.7608 0.583945 23.7608 1.3043V10.4347H22.7825C22.0622 10.4347 21.4782 11.0187 21.4782 11.739V17.1813C16.8977 19.0078 13.6521 23.4879 13.6521 28.712V58.6956C13.6521 59.4159 14.236 59.9999 14.9564 59.9999H43.6521C44.3725 59.9999 44.9564 59.4159 44.9564 58.6956V28.7121C44.9563 23.4879 41.7107 19.0078 37.1303 17.1814ZM26.3694 2.60871H32.239V10.4348H26.3694V2.60871ZM24.0867 13.0434H34.5214V16.3043H24.0867V13.0434ZM42.3476 57.3913H16.2607V28.7121C16.2607 23.3088 20.6565 18.913 26.0597 18.913H32.5486C37.9519 18.913 42.3476 23.3088 42.3476 28.7121V57.3913Z" fill="#F1CDB3"/>
<path d="M37.7825 27.3913H20.8259C20.1056 27.3913 19.5216 27.9752 19.5216 28.6956V52.826C19.5216 53.5464 20.1056 54.1303 20.8259 54.1303H37.7825C38.5028 54.1303 39.0868 53.5464 39.0868 52.826V44.6287C39.0868 43.9084 38.5028 43.3244 37.7825 43.3244C37.0621 43.3244 36.4782 43.9084 36.4782 44.6287V51.5217H22.1303V30H36.4782V34.1287C36.4782 34.8491 37.0621 35.433 37.7825 35.433C38.5028 35.433 39.0868 34.8491 39.0868 34.1287V28.6957C39.0868 27.9752 38.5028 27.3913 37.7825 27.3913Z" fill="#F1CDB3"/>
<path d="M37.7824 38.0645C37.0621 38.0645 36.4781 38.6484 36.4781 39.3688V39.4992C36.4781 40.2195 37.0621 40.8035 37.7824 40.8035C38.5028 40.8035 39.0867 40.2195 39.0867 39.4992V39.3688C39.0867 38.6484 38.5028 38.0645 37.7824 38.0645Z" fill="#F1CDB3"/>
<path d="M27.9922 41.1512C25.8345 41.1512 24.0792 42.9066 24.0792 45.0642C24.0792 47.2219 25.8345 48.9773 27.9922 48.9773C30.1499 48.9773 31.9052 47.2219 31.9052 45.0642C31.9052 42.9067 30.1499 41.1512 27.9922 41.1512ZM27.9922 46.3687C27.273 46.3687 26.6879 45.7835 26.6879 45.0644C26.6879 44.3452 27.273 43.7601 27.9922 43.7601C28.7114 43.7601 29.2965 44.3452 29.2965 45.0644C29.2965 45.7835 28.7115 46.3687 27.9922 46.3687Z" fill="#F1CDB3"/>
<path d="M34.8456 35.9842C34.8456 33.8266 33.0903 32.0712 30.9326 32.0712C28.7749 32.0712 27.0196 33.8266 27.0196 35.9842C27.0196 38.1419 28.7749 39.8973 30.9326 39.8973C33.0901 39.8974 34.8456 38.1419 34.8456 35.9842ZM30.9325 37.2887C30.2133 37.2887 29.6282 36.7035 29.6282 35.9844C29.6282 35.2652 30.2133 34.6801 30.9325 34.6801C31.6517 34.6801 32.2368 35.2652 32.2368 35.9844C32.2368 36.7035 31.6519 37.2887 30.9325 37.2887Z" fill="#F1CDB3"/>
</symbol><symbol id="icon-sleeping-areas" viewBox="0 0 60 60">
<path d="M57.9526 19.9663L30.9804 0.226256C30.7796 0.0792462 30.5371 0 30.2882 0C30.0393 0 29.7969 0.0792462 29.5961 0.226256L2.62395 19.9663C2.10176 20.3485 1.9882 21.0818 2.37047 21.6041L5.89582 26.4211C5.98668 26.5453 6.10113 26.6504 6.23263 26.7304C6.36412 26.8104 6.5101 26.8637 6.6622 26.8872C6.8143 26.9107 6.96955 26.9041 7.11908 26.8676C7.26861 26.8311 7.40947 26.7655 7.53363 26.6745L8.59746 25.8959V58.828C8.59746 59.4751 9.12223 59.9998 9.76934 59.9998H50.8691C51.5162 59.9998 52.041 59.4751 52.041 58.828V25.9413L53.0429 26.6745C53.1671 26.7655 53.308 26.831 53.4575 26.8675C53.607 26.904 53.7622 26.9106 53.9143 26.8871C54.0664 26.8636 54.2123 26.8103 54.3438 26.7303C54.4753 26.6504 54.5898 26.5453 54.6806 26.4211L58.206 21.6041C58.5884 21.0816 58.4748 20.3485 57.9526 19.9663ZM49.6972 53.0856H21.9716C21.3245 53.0856 20.7997 53.6103 20.7997 54.2574C20.7997 54.9045 21.3245 55.4293 21.9716 55.4293H49.6972V57.6562H10.9411V25.105H38.3843C39.0314 25.105 39.5562 24.5803 39.5562 23.9332C39.5562 23.2861 39.0314 22.7613 38.3843 22.7613H12.8813L30.2883 10.0213L49.6972 24.226V53.0856ZM53.4814 24.0911L30.9804 7.62348C30.7796 7.47638 30.5372 7.39712 30.2883 7.39719C30.0394 7.39709 29.7969 7.47636 29.5962 7.62348L7.095 24.0911L4.95387 21.1654L30.2884 2.62391L55.6229 21.1654L53.4814 24.0911Z" fill="#F1CDB3"/>
<path d="M43.7555 23.7046C43.7403 23.6295 43.7168 23.5557 43.6875 23.4842C43.6582 23.4139 43.6219 23.3459 43.5797 23.2826C43.5375 23.2184 43.4888 23.1587 43.4344 23.1045C43.2141 22.8855 42.9165 22.7621 42.6059 22.761C42.2977 22.761 41.9953 22.8864 41.7775 23.1045C41.7236 23.1584 41.6744 23.2182 41.6322 23.2826C41.59 23.3459 41.5537 23.4139 41.5244 23.4842C41.4951 23.5557 41.4716 23.6295 41.4576 23.7046C41.4423 23.7796 41.4341 23.8569 41.4341 23.933C41.4341 24.0092 41.4423 24.0866 41.4576 24.1615C41.4716 24.2364 41.4951 24.3103 41.5244 24.3818C41.5537 24.4523 41.59 24.5202 41.6322 24.5835C41.6744 24.648 41.7236 24.7076 41.7775 24.7616C41.8314 24.8155 41.8912 24.8648 41.9556 24.9069C42.0189 24.949 42.0869 24.9855 42.1583 25.0148C42.2287 25.0441 42.3024 25.0675 42.3775 25.0816C42.4525 25.0968 42.5298 25.1049 42.6059 25.1049C42.6821 25.1049 42.7595 25.0968 42.8344 25.0816C42.9096 25.067 42.983 25.0446 43.0535 25.0148C43.125 24.9855 43.193 24.949 43.2563 24.9069C43.3207 24.8648 43.3804 24.8155 43.4344 24.7616C43.4883 24.7077 43.5375 24.648 43.5797 24.5835C43.6219 24.5202 43.6582 24.4523 43.6875 24.3818C43.7168 24.3105 43.7403 24.2365 43.7555 24.1615C43.7707 24.0865 43.7776 24.0092 43.7776 23.933C43.7776 23.8569 43.7706 23.7795 43.7555 23.7046Z" fill="#F1CDB3"/>
<path d="M18.8986 54.0281C18.8836 53.9531 18.8612 53.8797 18.8319 53.809C18.8026 53.7386 18.7661 53.6695 18.724 53.6063C18.6815 53.5423 18.6329 53.4826 18.5788 53.4281C18.5249 53.3742 18.465 53.3262 18.4006 53.2828C18.2726 53.1978 18.1294 53.1385 17.9788 53.1082C17.8276 53.0777 17.6718 53.0777 17.5206 53.1082C17.4467 53.1234 17.3729 53.1457 17.3014 53.175C17.2311 53.2043 17.1631 53.2406 17.0999 53.2828C17.0354 53.325 16.9755 53.3742 16.9217 53.4281C16.8667 53.482 16.8186 53.543 16.7753 53.6063C16.6903 53.7342 16.631 53.8775 16.6008 54.0281C16.5854 54.1043 16.5785 54.1805 16.5785 54.2566C16.578 54.4106 16.6082 54.5632 16.6674 54.7054C16.6967 54.7758 16.7332 54.8438 16.7753 54.9081C16.8186 54.9714 16.8667 55.0312 16.9217 55.0862C16.9756 55.1403 17.0355 55.1895 17.0999 55.2315C17.1631 55.2737 17.2311 55.3101 17.3014 55.3394C17.3729 55.3686 17.4467 55.3909 17.5206 55.4061C17.5967 55.4214 17.6741 55.4296 17.7503 55.4296C17.9818 55.4286 18.2079 55.3598 18.4006 55.2315C18.4649 55.1894 18.5246 55.1407 18.5788 55.0862C18.6327 55.0312 18.6819 54.9715 18.724 54.9081C18.8524 54.7151 18.9213 54.4885 18.922 54.2566C18.922 54.1805 18.9138 54.1042 18.8986 54.0281Z" fill="#F1CDB3"/>
<path d="M44.8447 30.5741C44.8447 29.5803 44.455 28.6476 43.7472 27.9481C43.0462 27.2554 42.0876 26.8676 41.1101 26.876C40.8019 26.8793 40.4954 26.9208 40.1974 26.9997C38.0274 27.5554 35.9072 28.2902 33.8587 29.1966C32.6888 28.9199 31.4906 28.7806 30.2884 28.7813C29.6114 28.7813 28.9285 28.8257 28.258 28.9133C27.7403 28.9816 27.2264 29.0761 26.7183 29.1966C24.6701 28.2903 22.5503 27.5556 20.3806 26.9999C20.3701 26.997 20.3597 26.9942 20.3492 26.9915C19.1958 26.6978 18.0063 26.9619 17.086 27.7171C16.1658 28.472 15.6744 29.5867 15.7376 30.7745C15.8021 31.9938 15.9221 33.2096 16.097 34.418C16.2542 35.5012 16.4549 36.5776 16.6988 37.6446C16.336 38.5729 16.0832 39.5405 15.9456 40.5276C15.8884 40.9397 15.8595 41.3553 15.8591 41.7714C15.8591 47.0173 20.4337 51.2853 26.0568 51.2853H34.5204C37.6026 51.2853 40.4861 50.0035 42.4317 47.7686C44.2147 45.7205 44.9959 43.1486 44.6314 40.5269C44.5529 39.9648 44.4373 39.4085 44.2852 38.8617C44.1699 38.4498 44.0343 38.0438 43.8788 37.6453C44.3946 35.3878 44.716 33.0901 44.8394 30.7777C44.843 30.7091 44.8447 30.6416 44.8447 30.5741ZM42.4988 30.647L42.4985 30.651C42.3761 32.949 42.0461 35.2312 41.5124 37.4697C41.4543 37.7133 41.4758 37.9692 41.5737 38.1997C41.7523 38.6199 41.9037 39.0511 42.0269 39.4907C42.151 39.937 42.2453 40.391 42.3094 40.8497C42.5792 42.7897 41.9946 44.7004 40.6634 46.2296C39.163 47.9529 36.9239 48.9414 34.5198 48.9414H26.0562C21.7256 48.9414 18.2023 45.7249 18.2023 41.7714C18.2023 41.4679 18.224 41.1574 18.2665 40.8496C18.3939 39.938 18.6413 39.0473 19.0023 38.2007C19.1006 37.9699 19.1222 37.7138 19.0641 37.4698C18.7974 36.3508 18.5811 35.2203 18.4159 34.0819C18.2512 32.9439 18.1382 31.799 18.0775 30.6508C18.0543 30.2148 18.2345 29.806 18.5721 29.5289C18.8194 29.326 19.1199 29.2196 19.4291 29.2196C19.5345 29.2196 19.641 29.2319 19.7468 29.2571L19.7701 29.2633C21.9494 29.8194 24.0752 30.5674 26.1225 31.4985C26.3698 31.6112 26.6485 31.6346 26.9111 31.5646C27.4537 31.4199 28.0052 31.3106 28.562 31.2372C29.1312 31.1628 29.712 31.125 30.2877 31.125C31.4355 31.125 32.5714 31.2729 33.6642 31.5646C33.9265 31.6342 34.2049 31.6114 34.452 31.499C36.5066 30.5646 38.6402 29.8145 40.8274 29.2573C40.9275 29.2333 41.03 29.2207 41.1329 29.2196H41.1482C41.4985 29.2196 41.8444 29.3632 42.0992 29.6149C42.2266 29.74 42.3278 29.8892 42.3967 30.0539C42.4657 30.2186 42.501 30.3955 42.5005 30.574C42.5006 30.5983 42.5001 30.6224 42.4988 30.647Z" fill="#F1CDB3"/>
<path d="M32.4862 43.5662C31.9205 43.5662 31.4602 43.1059 31.4602 42.5403C31.4602 41.8932 30.9355 41.3684 30.2883 41.3684C29.6411 41.3684 29.1164 41.8932 29.1164 42.5403V42.5831C29.1164 43.1487 28.6562 43.609 28.0906 43.609C27.4433 43.609 26.9187 44.1338 26.9187 44.7809C26.9187 45.428 27.4433 45.9528 28.0906 45.9528C28.9413 45.9528 29.7192 45.6356 30.3129 45.1135C30.9199 45.6284 31.6902 45.9107 32.4862 45.9099C33.1333 45.9099 33.658 45.3851 33.658 44.738C33.658 44.0908 33.1333 43.5662 32.4862 43.5662Z" fill="#F1CDB3"/>
<path d="M26.1919 38.1664L24.4512 37.3688C24.2981 37.2985 24.1316 37.2621 23.9631 37.2621C23.7947 37.2621 23.6282 37.2985 23.475 37.3688L21.7342 38.1664C21.1458 38.4359 20.8873 39.1314 21.157 39.7198C21.221 39.8597 21.3121 39.9856 21.4248 40.0904C21.5376 40.1951 21.6698 40.2766 21.8141 40.3302C21.9584 40.3838 22.1118 40.4085 22.2655 40.4028C22.4193 40.3971 22.5705 40.3612 22.7104 40.2971L23.963 39.7232L25.2156 40.2971C25.8037 40.5669 26.4995 40.3082 26.7691 39.7198C27.0388 39.1314 26.7802 38.4358 26.1919 38.1664Z" fill="#F1CDB3"/>
<path d="M38.8423 38.1662L37.1016 37.3686C36.9485 37.2983 36.782 37.262 36.6135 37.262C36.4451 37.262 36.2786 37.2983 36.1255 37.3686L34.3847 38.1662C33.7963 38.4357 33.5378 39.1312 33.8075 39.7196C34.0771 40.3083 34.7726 40.5669 35.3609 40.2969L36.6135 39.723L37.8662 40.2969C38.019 40.3672 38.1853 40.4036 38.3535 40.4036C38.7977 40.4036 39.2225 40.1498 39.4196 39.7196C39.6892 39.1312 39.4308 38.4357 38.8423 38.1662Z" fill="#F1CDB3"/>
</symbol><symbol id="icon-toys" viewBox="0 0 60 60">
<path d="M51.2132 8.78672C45.5469 3.1207 38.0133 0 30 0C21.9867 0 14.4531 3.1207 8.78684 8.78672C3.12047 14.4531 0 21.9866 0 30C0 38.0134 3.12047 45.5469 8.78684 51.2133C14.4531 56.8793 21.9867 60 30 60C38.0133 60 45.5469 56.8793 51.2132 51.2133C56.8795 45.5469 60 38.0134 60 30C60 21.9866 56.8795 14.4531 51.2132 8.78672ZM10.6314 49.3685C5.90438 44.6415 3.11918 38.4906 2.67352 31.8832C3.39 31.9077 4.1223 31.9755 4.86223 32.0856C10.1654 32.8733 15.5023 35.7234 19.8894 40.1106C24.2766 44.4979 27.1266 49.8346 27.9144 55.1379C28.0223 55.8586 28.0894 56.5849 28.1154 57.3132C21.7419 56.8775 15.4928 54.2298 10.6314 49.3685ZM30.7262 57.3682C30.7013 56.4931 30.6239 55.6203 30.4946 54.7545C29.6251 48.9019 26.5139 43.046 21.7338 38.2659C16.9538 33.4859 11.098 30.3746 5.2452 29.5051C4.37502 29.3751 3.49781 29.2977 2.61832 29.2732C2.64105 28.3972 2.7048 27.5283 2.8084 26.6682C3.73793 26.6987 4.68246 26.7843 5.62863 26.9248C12.0308 27.8757 18.4055 31.2484 23.5785 36.4213C28.7512 41.5939 32.1239 47.9687 33.075 54.3709C33.2133 55.3004 33.2987 56.237 33.3307 57.1763C32.4661 57.2814 31.5969 57.3455 30.7262 57.3682ZM49.3685 49.3685C45.5416 53.1952 40.8551 55.6504 35.9248 56.7348C35.881 55.8152 35.7912 54.8983 35.6557 53.9877C34.6229 47.0358 30.9889 40.1423 25.4234 34.5766C19.8575 29.0109 12.964 25.3772 6.0123 24.3444C5.0982 24.2082 4.17782 24.1182 3.25465 24.0746L3.2475 24.0805C4.35598 19.0238 6.88301 14.3798 10.6315 10.6314C14.2923 6.97055 18.7399 4.56516 23.4349 3.41402C23.4672 4.49215 23.5632 5.56742 23.7224 6.63422C24.755 13.5859 28.3889 20.4795 33.9546 26.0453C39.5203 31.611 46.4139 35.2447 53.3659 36.2775C54.4358 36.4373 55.5143 36.5334 56.5956 36.5653L56.6073 36.5459C55.4323 41.3595 52.9617 45.7754 49.3685 49.3685ZM57.1071 33.966C56.0064 33.955 54.8814 33.8653 53.7492 33.6972C47.3468 32.7461 40.972 29.3735 35.7993 24.2006C30.6265 19.0277 27.2538 12.6531 26.3029 6.25102C26.1354 5.12379 26.0455 4.00371 26.034 2.90824C26.8999 2.78261 27.7712 2.69826 28.6451 2.65547C28.6431 3.70254 28.7214 4.7775 28.8832 5.8677C29.7527 11.7204 32.8641 17.5763 37.6441 22.3562C38.1534 22.8654 38.9794 22.8654 39.4888 22.3562C39.9981 21.8469 39.9981 21.021 39.4888 20.5114C35.1016 16.1243 32.2516 10.7876 31.4638 5.48426C31.3205 4.51898 31.2499 3.57035 31.2521 2.65055C37.8434 2.94937 44.3467 5.60918 49.3688 10.6315C54.2461 15.5088 57.0565 21.902 57.3623 28.7483C56.4367 28.7503 55.4855 28.6804 54.5159 28.5363C53.8035 28.4305 53.1397 28.9225 53.034 29.635C52.9281 30.3476 53.42 31.0109 54.1325 31.1167C55.21 31.2768 56.2729 31.3569 57.3083 31.3569C57.3252 31.3569 57.3417 31.356 57.3586 31.356C57.316 32.2295 57.2321 33.1004 57.1071 33.966Z" fill="#F1CDB3"/>
<path d="M46.1517 25.775C45.8059 25.7756 45.4744 25.9131 45.2296 26.1573C44.9854 26.4021 44.848 26.7336 44.8474 27.0793C44.8474 27.4224 44.9857 27.7589 45.2296 28.0015C45.4721 28.2442 45.8087 28.3836 46.1517 28.3836C46.4947 28.3836 46.8313 28.2442 47.0739 28.0015C47.3176 27.7563 47.4549 27.425 47.456 27.0793C47.456 26.7363 47.3164 26.3998 47.0739 26.1573C46.829 25.9131 46.4975 25.7756 46.1517 25.775Z" fill="#F1CDB3"/>
</symbol><symbol id="icon-transportation" viewBox="0 0 61 60">
<path d="M56.0044 12.7115H48.9814V12.5095C48.9814 8.87665 46.026 5.92118 42.3932 5.92118C38.7603 5.92118 35.8049 8.87665 35.8049 12.5095V12.7115H27.5571C24.8414 12.7115 22.6321 14.9209 22.6321 17.6365V23.2009H15.2458C13.4838 23.2009 11.9176 24.2562 11.2558 25.8893C11.2462 25.9133 11.2373 25.9375 11.2291 25.962L6.96808 38.8689C6.9294 38.8919 6.88007 38.9191 6.81866 38.9498C6.57503 39.0714 6.11929 39.2568 5.33507 39.4484C4.09062 39.7499 2.9839 40.4616 2.19323 41.4688C1.40255 42.4759 0.973964 43.72 0.976513 45.0004V51.0987C0.976513 53.1406 2.63765 54.8018 4.67952 54.8018L9.90374 54.802C10.4553 57.7562 13.0514 59.9999 16.1632 59.9999C19.2749 59.9999 21.8709 57.7561 22.4226 54.8021L40.8472 54.8024C41.3989 57.7564 43.9949 59.9999 47.1066 59.9999C50.2181 59.9999 52.8141 57.7565 53.3659 54.8026L56.6836 54.8027C59.2232 54.8027 60.9294 53.0963 60.9294 50.5568V20.08C60.9294 13.4295 57.4851 12.7115 56.0044 12.7115ZM38.1486 12.5095C38.1486 10.169 40.0527 8.26493 42.3932 8.26493C44.7336 8.26493 46.6377 10.169 46.6377 12.5095V12.7115H38.1486V12.5095ZM13.4413 26.7379C13.591 26.3833 13.8422 26.0809 14.1632 25.8686C14.4842 25.6563 14.8609 25.5436 15.2457 25.5447H22.6319V38.8266H9.45022L13.4413 26.7379ZM16.1632 57.6562C13.9435 57.6562 12.1377 55.8504 12.1377 53.6307C12.1377 53.6033 12.1392 53.5762 12.1398 53.5488C12.1406 53.5069 12.1408 53.465 12.143 53.4234C12.1433 53.4168 12.1441 53.4104 12.1445 53.4038C12.2626 51.2894 14.02 49.6052 16.1632 49.6052C18.1026 49.6052 19.7262 50.9841 20.105 52.8129L20.1067 52.82C20.1194 52.882 20.1305 52.9445 20.1403 53.0076L20.1422 53.018C20.1492 53.0638 20.1544 53.1101 20.1598 53.1564C20.1622 53.1775 20.1656 53.1983 20.1677 53.2194C20.1714 53.2554 20.1734 53.2921 20.176 53.3285C20.1784 53.3602 20.1817 53.3916 20.1833 53.4235C20.185 53.4563 20.185 53.4896 20.1858 53.5226C20.1867 53.5586 20.1885 53.5944 20.1885 53.6306C20.1887 55.8504 18.3828 57.6562 16.1632 57.6562ZM47.1066 57.6562C44.8869 57.6562 43.081 55.8504 43.081 53.6307C43.081 53.5783 43.083 53.5263 43.085 53.4743C43.0856 53.4576 43.0855 53.4405 43.0863 53.4238C43.0883 53.3852 43.0921 53.3471 43.0951 53.3088C43.0975 53.2791 43.0989 53.2491 43.1019 53.2196C43.1032 53.207 43.1053 53.1947 43.1066 53.1823C43.1202 53.06 43.1386 52.939 43.163 52.8203C43.1637 52.8168 43.1646 52.8134 43.1654 52.8099C43.5455 50.9826 45.168 49.6053 47.1066 49.6053C47.6614 49.6053 48.1905 49.7181 48.6719 49.9222C50.1163 50.5341 51.1319 51.966 51.1319 53.6308C51.1319 55.8504 49.3262 57.6562 47.1066 57.6562ZM56.6836 52.4588L53.3678 52.4587C53.3639 52.4379 53.3589 52.4175 53.3548 52.3968C53.3272 52.2591 53.2954 52.1222 53.2595 51.9864C53.2435 51.927 53.2267 51.8679 53.209 51.809C53.198 51.7724 53.1872 51.7358 53.1757 51.6994C53.156 51.6382 53.1353 51.5772 53.1137 51.5166C53.1022 51.4842 53.0913 51.4513 53.0793 51.4191C53.0531 51.3492 53.0257 51.2799 52.997 51.211C52.988 51.1892 52.9798 51.1669 52.9705 51.1452C52.9318 51.0542 52.891 50.9641 52.8482 50.875C52.8428 50.8639 52.8369 50.8532 52.8315 50.8422C52.7941 50.7656 52.7552 50.6897 52.7148 50.6146C52.6999 50.5871 52.6841 50.5602 52.6689 50.5329C52.6367 50.4749 52.6036 50.4175 52.5696 50.3606C52.5511 50.3297 52.5319 50.2995 52.5128 50.2689C52.4605 50.1846 52.4061 50.1016 52.3495 50.0201C52.2939 49.9395 52.2365 49.8602 52.1773 49.7821C52.1403 49.7337 52.1026 49.6858 52.0643 49.6385C52.0414 49.6102 52.0189 49.5819 51.9956 49.554C51.9539 49.5043 51.9114 49.4553 51.8682 49.4069C51.8469 49.383 51.8262 49.3585 51.8045 49.3349C51.7507 49.2763 51.6958 49.2188 51.6398 49.1623C51.6278 49.1501 51.6163 49.1374 51.6041 49.1253C51.535 49.0563 51.4644 48.989 51.3922 48.9233C51.3769 48.9092 51.3608 48.896 51.3452 48.882C51.2887 48.8315 51.2316 48.7815 51.1732 48.7329C51.1476 48.7116 51.1213 48.6912 51.0954 48.6704C51.046 48.6304 50.996 48.5911 50.9455 48.5525C50.9157 48.53 50.8856 48.5081 50.8555 48.4861C50.7281 48.3927 50.5972 48.3043 50.463 48.221C50.4302 48.2004 50.3973 48.1802 50.364 48.1602C50.3121 48.1292 50.2596 48.0993 50.2068 48.0698C50.1743 48.0516 50.1419 48.0331 50.1091 48.0155C50.0517 47.9847 49.9935 47.9553 49.935 47.9262C49.9059 47.9117 49.8772 47.8966 49.8479 47.8826C49.7713 47.8461 49.694 47.8111 49.616 47.7776C49.6041 47.7725 49.5923 47.7667 49.5803 47.7616C49.4896 47.7233 49.398 47.6871 49.3056 47.6531C49.2792 47.6433 49.2524 47.6348 49.2258 47.6254C49.1594 47.602 49.093 47.5789 49.0257 47.5575C48.9905 47.5464 48.9548 47.5363 48.9193 47.5258C48.8597 47.5081 48.7999 47.4906 48.7396 47.4746C48.7009 47.4643 48.662 47.4549 48.623 47.4453C48.5245 47.421 48.4254 47.3992 48.3259 47.3798C48.2669 47.3684 48.2078 47.3578 48.1485 47.348C48.1078 47.3413 48.0671 47.3345 48.0262 47.3287C47.9646 47.3199 47.9028 47.3121 47.841 47.3051C47.8017 47.3006 47.7626 47.2956 47.7231 47.2919C47.6545 47.2856 47.5859 47.2803 47.5172 47.2762C47.4835 47.2741 47.4503 47.271 47.4165 47.2694C47.3132 47.2643 47.2098 47.2617 47.1064 47.2615C47.0025 47.2615 46.8991 47.2645 46.7964 47.2694C46.7626 47.271 46.7292 47.2741 46.6956 47.2762C46.6268 47.2806 46.5581 47.2853 46.4899 47.2919C46.4503 47.2958 46.4112 47.3007 46.3718 47.3052C46.3099 47.3124 46.2482 47.3199 46.1869 47.3288C46.1459 47.3348 46.105 47.3415 46.0642 47.3483C45.9641 47.3649 45.8644 47.3838 45.7651 47.4049C45.7068 47.4175 45.6486 47.431 45.5906 47.4453C45.5512 47.4549 45.512 47.4645 45.473 47.4748C45.4132 47.4906 45.354 47.5079 45.295 47.5254C45.2589 47.5362 45.2225 47.5464 45.1867 47.5578C45.121 47.5788 45.0556 47.601 44.9906 47.6242C44.9627 47.6341 44.9345 47.6431 44.9067 47.6534C44.8146 47.6874 44.7234 47.7233 44.6334 47.7613C44.6185 47.7677 44.604 47.7747 44.5891 47.7812C44.514 47.8136 44.4395 47.847 44.3659 47.8822C44.3348 47.897 44.3045 47.913 44.2737 47.9283C44.2172 47.9566 44.1607 47.9849 44.1051 48.0147C44.0708 48.0331 44.0369 48.0524 44.003 48.0715C43.9518 48.1001 43.901 48.1293 43.8506 48.1592C43.7321 48.2304 43.6158 48.3051 43.5019 48.3833C43.4545 48.416 43.4076 48.4494 43.3611 48.4835C43.3291 48.5068 43.297 48.53 43.2655 48.5539C43.2173 48.5904 43.1701 48.6281 43.123 48.6659C43.0946 48.6888 43.0659 48.711 43.0379 48.7343C42.9838 48.7795 42.9308 48.826 42.8782 48.8727C42.8586 48.8901 42.8386 48.9069 42.8193 48.9244C42.7481 48.9892 42.6785 49.0556 42.6104 49.1235C42.5932 49.1406 42.5769 49.1587 42.5598 49.176C42.5093 49.2276 42.4591 49.2795 42.4103 49.3328C42.3859 49.3595 42.3623 49.387 42.3384 49.414C42.2982 49.4594 42.2583 49.5049 42.2194 49.5514C42.1941 49.5817 42.1694 49.6126 42.1447 49.6434C42.1086 49.6881 42.073 49.7331 42.0381 49.7788C41.9544 49.889 41.8742 50.0018 41.7975 50.1169C41.7655 50.165 41.7346 50.2137 41.704 50.2627C41.683 50.2962 41.6618 50.3296 41.6415 50.3635C41.6099 50.4161 41.5796 50.4695 41.5496 50.5232C41.5321 50.5545 41.5139 50.5854 41.4968 50.6172C41.4607 50.684 41.4264 50.752 41.3927 50.8202C41.3832 50.8394 41.373 50.858 41.3638 50.8774C41.3216 50.965 41.2815 51.0536 41.2434 51.143C41.2318 51.1703 41.2214 51.1982 41.2102 51.2258C41.1843 51.2889 41.1587 51.3523 41.1348 51.4165C41.1214 51.4524 41.1094 51.4887 41.0966 51.5247C41.0764 51.5817 41.057 51.6389 41.0384 51.6964C41.0258 51.7355 41.0142 51.7751 41.0024 51.8146C40.9736 51.911 40.9471 52.008 40.923 52.1056C40.9091 52.162 40.8961 52.2187 40.8837 52.2758C40.8746 52.3171 40.8657 52.3585 40.8575 52.4001C40.8537 52.4198 40.8489 52.4391 40.8452 52.4588L22.4241 52.4585C22.4202 52.4382 22.4154 52.4181 22.4114 52.3979C22.4035 52.3578 22.3949 52.3181 22.3863 52.2783C22.3523 52.1215 22.3122 51.9659 22.2662 51.8122C22.2548 51.774 22.2435 51.7358 22.2314 51.6978C22.2124 51.6389 22.1926 51.5804 22.1719 51.5221C22.1596 51.4872 22.1477 51.452 22.1348 51.4174C22.1104 51.3522 22.0848 51.2875 22.0581 51.2232C22.0473 51.1967 22.0372 51.1697 22.026 51.1435C21.9878 51.0538 21.9476 50.965 21.9053 50.8771C21.8967 50.8594 21.8873 50.8423 21.8787 50.8247C21.8444 50.7548 21.8089 50.6855 21.772 50.6169C21.7554 50.5859 21.7376 50.5556 21.7203 50.525C21.6899 50.4707 21.6593 50.4166 21.6273 50.3634C21.6071 50.3297 21.5862 50.2968 21.5654 50.2636C21.5347 50.2143 21.5034 50.1654 21.4713 50.1169C21.3946 50.0019 21.3144 49.8893 21.2309 49.7792C21.196 49.7335 21.1604 49.6885 21.1243 49.6438C21.0995 49.613 21.0748 49.582 21.0494 49.5516C21.0105 49.5055 20.971 49.4598 20.9309 49.4147C20.9067 49.3876 20.883 49.3599 20.8585 49.3331C20.8103 49.2803 20.7606 49.2289 20.7105 49.1778C20.693 49.1599 20.6762 49.1413 20.6584 49.1238C20.5904 49.0559 20.5209 48.9897 20.4499 48.925C20.4302 48.907 20.4096 48.89 20.3897 48.8722C20.3376 48.8255 20.2848 48.7798 20.2312 48.7349C20.2029 48.7114 20.1738 48.6888 20.1451 48.6657C20.0985 48.6282 20.0516 48.5908 20.0038 48.5546C19.972 48.5304 19.9397 48.5071 19.9075 48.4836C19.8612 48.4497 19.8145 48.4165 19.7674 48.3838C19.6868 48.3285 19.6049 48.2749 19.5219 48.2232C19.4875 48.2016 19.4528 48.1803 19.418 48.1594C19.3679 48.1296 19.3174 48.1006 19.2666 48.0722C19.2323 48.053 19.1982 48.0336 19.1635 48.0151C19.1082 47.9856 19.0525 47.957 18.9963 47.9293C18.9651 47.9137 18.9343 47.8975 18.9028 47.8824C18.8301 47.8478 18.7567 47.8146 18.6827 47.7827C18.6669 47.7758 18.6514 47.7683 18.6355 47.7615C18.5454 47.7234 18.4544 47.6875 18.3626 47.6536C18.3343 47.6432 18.3056 47.6341 18.2771 47.624C18.2127 47.601 18.1478 47.579 18.0826 47.558C18.0465 47.5465 18.0098 47.5362 17.9734 47.5254C17.9146 47.5078 17.8556 47.491 17.7963 47.4751C17.7571 47.4646 17.7176 47.455 17.6781 47.4454C17.5217 47.4067 17.3639 47.3743 17.2049 47.3484C17.1641 47.3417 17.1233 47.3349 17.0822 47.3289C17.0206 47.3202 16.9589 47.3123 16.8971 47.3054C16.8579 47.3008 16.8187 47.2959 16.7792 47.292C16.7107 47.2857 16.6421 47.2805 16.5734 47.2763C16.5397 47.2742 16.5064 47.2711 16.4727 47.2695C16.3694 47.2644 16.266 47.2618 16.1626 47.2617C16.0587 47.2617 15.9554 47.2646 15.8525 47.2695C15.8188 47.2711 15.7854 47.2742 15.7517 47.2763C15.683 47.2808 15.6143 47.2854 15.5461 47.292C15.5065 47.2959 15.4672 47.3008 15.4278 47.3054C15.3662 47.3123 15.3046 47.3202 15.2432 47.3289C15.2019 47.3349 15.161 47.3417 15.1201 47.3484C15.02 47.3648 14.9203 47.3837 14.8212 47.405C14.763 47.4175 14.7053 47.431 14.6476 47.4452C14.6079 47.4549 14.568 47.4646 14.5287 47.4751C14.4698 47.4909 14.4112 47.5076 14.3529 47.5251C14.3161 47.536 14.2791 47.5465 14.2425 47.558C14.178 47.5784 14.1143 47.6007 14.0507 47.6231C14.0212 47.6334 13.9916 47.6429 13.9624 47.6536C13.8708 47.6875 13.7801 47.7231 13.6905 47.761C13.6724 47.7687 13.6547 47.7773 13.6366 47.7851C13.565 47.8162 13.4938 47.8481 13.4235 47.8817C13.3907 47.8974 13.3585 47.9143 13.326 47.9306C13.2712 47.9577 13.2168 47.9855 13.1628 48.0142C13.1272 48.0333 13.0922 48.0534 13.0569 48.0732C13.0072 48.1011 12.9576 48.1292 12.9088 48.1585C12.8252 48.2086 12.7427 48.2604 12.6614 48.3141C12.6262 48.3373 12.5913 48.3608 12.5566 48.3847C12.5107 48.4163 12.4655 48.4488 12.4203 48.4816C12.3869 48.506 12.3533 48.5302 12.3204 48.5553C12.2743 48.5903 12.2291 48.6263 12.184 48.6625C12.1536 48.6869 12.1229 48.7107 12.0932 48.7356C12.0424 48.7778 11.993 48.8214 11.9436 48.8651C11.9207 48.8854 11.8972 48.9051 11.8745 48.9257C11.8043 48.9898 11.7355 49.0554 11.6681 49.1225C11.6473 49.1433 11.6273 49.1651 11.6067 49.1862C11.56 49.2342 11.5134 49.2822 11.4682 49.3315C11.4418 49.3602 11.4165 49.3899 11.3907 49.4191C11.3525 49.4623 11.3144 49.5056 11.2775 49.5499C11.2508 49.5817 11.2248 49.6143 11.1988 49.6468C11.1641 49.6897 11.13 49.7331 11.0965 49.777C11.0376 49.8544 10.9804 49.9332 10.925 50.0132C10.9007 50.0482 10.8767 50.0835 10.8531 50.1189C10.8223 50.1653 10.7925 50.2123 10.7628 50.2594C10.7408 50.2946 10.7187 50.3295 10.6973 50.3651C10.667 50.4156 10.638 50.467 10.6091 50.5183C10.5903 50.5517 10.571 50.5847 10.5527 50.6185C10.519 50.6817 10.4863 50.7454 10.4546 50.8097C10.4432 50.8327 10.431 50.8552 10.4198 50.8784C10.3781 50.9651 10.3384 51.0529 10.3005 51.1417C10.2876 51.172 10.2762 51.2028 10.2637 51.2333C10.2391 51.2936 10.2146 51.354 10.1919 51.4151C10.178 51.4525 10.1653 51.4904 10.1521 51.5281C10.1326 51.5835 10.1134 51.639 10.0955 51.695C10.0826 51.7352 10.0706 51.7757 10.0585 51.8163C10.0423 51.871 10.0264 51.9258 10.0116 51.9811C9.98547 52.0781 9.96183 52.1757 9.94065 52.2739C9.93151 52.3161 9.92237 52.3581 9.91405 52.4007C9.9103 52.4199 9.90561 52.4389 9.90198 52.4581H4.67952C3.92999 52.4581 3.32026 51.8484 3.32026 51.0987V45.0004C3.31869 44.2451 3.57146 43.5113 4.03784 42.9171C4.50422 42.323 5.15705 41.9032 5.89112 41.7254C6.55897 41.5621 7.13261 41.376 7.60101 41.1705H50.1626C50.8097 41.1705 51.3344 40.6458 51.3344 39.9986C51.3344 39.3515 50.8097 38.8267 50.1626 38.8267H24.9758V17.6365C24.9758 16.2133 26.1339 15.0552 27.5571 15.0552H56.0042C58.2503 15.0552 58.5855 18.2034 58.5855 20.08V50.5567C58.5855 52.2118 57.3939 52.4588 56.6836 52.4588Z" fill="#F1CDB3"/>
<path d="M51.4371 24.8147C51.4372 23.2763 50.3567 21.9863 48.9149 21.6615C48.9226 21.5806 48.9287 21.4992 48.9311 21.4169C48.9579 20.4633 48.6017 19.5567 47.9282 18.864C47.2432 18.1596 46.2866 17.7557 45.3034 17.7557C44.1154 17.7557 43.0573 18.3338 42.3948 19.2239C41.7328 18.3338 40.6738 17.7557 39.4831 17.7557C38.5086 17.7557 37.5586 18.1544 36.8767 18.8498C36.1995 19.5402 35.8367 20.4483 35.8552 21.4064C35.8568 21.4923 35.8627 21.5773 35.8703 21.6618C34.4291 21.987 33.3492 23.2766 33.3492 24.8147C33.3492 26.1163 34.1229 27.2399 35.2341 27.7519C34.4513 28.7206 33.9945 29.9464 33.9945 31.2423C33.9945 34.3028 36.4843 36.7927 39.5448 36.7927C40.5529 36.7927 41.537 36.5172 42.3932 36.0051C43.254 36.5202 44.2384 36.7924 45.2415 36.7927C48.302 36.7927 50.7919 34.3028 50.7919 31.2423C50.7919 29.9462 50.3351 28.7206 49.5523 27.7519C50.6636 27.2399 51.4371 26.1163 51.4371 24.8147ZM45.3034 20.0996C45.6574 20.0996 46.0016 20.2448 46.2478 20.4979C46.4762 20.7328 46.597 21.0357 46.5883 21.3508C46.568 22.0692 45.9856 22.6602 45.2898 22.6682C45.1034 22.668 44.9191 22.6279 44.7495 22.5505C44.7285 22.5408 44.7079 22.5304 44.6868 22.5209C44.58 22.4646 44.4823 22.3927 44.3966 22.3077C44.1518 22.0648 44.0177 21.7384 44.0191 21.3885C44.022 20.6778 44.5982 20.0996 45.3034 20.0996ZM38.5498 20.491C38.6712 20.3665 38.8163 20.2677 38.9766 20.2005C39.1369 20.1332 39.3091 20.0988 39.4829 20.0994C40.1903 20.0994 40.7664 20.6762 40.7672 21.3851C40.7681 21.5579 40.7343 21.7291 40.6678 21.8885C40.6013 22.048 40.5035 22.1925 40.3801 22.3135C40.2964 22.3959 40.2013 22.466 40.0978 22.5217C40.0595 22.5391 40.0221 22.5577 39.9843 22.5758C39.8315 22.6389 39.6675 22.6704 39.5023 22.6683C38.7969 22.6567 38.212 22.0704 38.1983 21.3613C38.192 21.0374 38.3169 20.7285 38.5498 20.491ZM35.693 24.8148C35.6929 24.3245 36.0918 23.9257 36.5818 23.9257C37.0722 23.9257 37.4709 24.3245 37.4709 24.8148C37.4709 24.9155 37.4534 25.0118 37.4224 25.1022C37.3931 25.1611 37.3649 25.2207 37.3377 25.2808C37.1809 25.5341 36.9012 25.7038 36.582 25.7038C36.0918 25.7038 35.693 25.305 35.693 24.8148ZM45.2415 34.4492C44.4765 34.4489 43.7368 34.175 43.1561 33.6769C42.9438 33.4945 42.6731 33.3943 42.3932 33.3946C42.1133 33.3944 41.8426 33.4946 41.6303 33.6769C41.0496 34.175 40.3099 34.4489 39.5448 34.4492C37.7767 34.4492 36.3382 33.0107 36.3382 31.2426C36.3382 29.9023 37.1833 28.6919 38.4409 28.2307C38.6472 28.1551 38.8281 28.023 38.9629 27.8495C39.0977 27.676 39.181 27.4681 39.2033 27.2495C39.2362 26.9273 39.3176 26.6118 39.4447 26.3139C39.4865 26.2346 39.5256 26.1537 39.5608 26.0707C39.8716 25.4851 40.3571 25.0108 40.9498 24.7136C41.0008 24.6912 41.0511 24.6676 41.1011 24.6428C41.5085 24.4648 41.9485 24.3731 42.3932 24.3737C42.8513 24.3737 43.2875 24.4692 43.6828 24.6417C43.7327 24.6665 43.7831 24.6899 43.8341 24.7123C44.4279 25.0094 44.9143 25.4843 45.2256 26.0707C45.2608 26.1537 45.2999 26.2346 45.3416 26.3139C45.4688 26.6118 45.5502 26.9273 45.583 27.2495C45.6053 27.4681 45.6886 27.676 45.8235 27.8495C45.9583 28.023 46.1391 28.1551 46.3454 28.2307C47.6031 28.692 48.4481 29.9023 48.4481 31.2426C48.4481 33.0106 47.0097 34.4492 45.2415 34.4492ZM48.2045 25.7038C47.8853 25.7038 47.6056 25.5341 47.4488 25.2808C47.4216 25.2208 47.3933 25.1612 47.364 25.1022C47.3321 25.0097 47.3157 24.9126 47.3155 24.8148C47.3155 24.3245 47.7143 23.9257 48.2046 23.9257C48.6948 23.9257 49.0936 24.3245 49.0936 24.8148C49.0935 25.3049 48.6947 25.7038 48.2045 25.7038Z" fill="#F1CDB3"/>
<path d="M56.0193 39.7758C56.0043 39.7007 55.9819 39.6273 55.9526 39.5566C55.9234 39.4857 55.8873 39.4178 55.8448 39.3539C55.8026 39.2897 55.7539 39.23 55.6995 39.1758C55.6452 39.1214 55.5856 39.0727 55.5214 39.0305C55.3933 38.9457 55.25 38.8864 55.0995 38.8559C54.9487 38.8254 54.7933 38.8254 54.6425 38.8559C54.5675 38.8712 54.4936 38.8934 54.4221 38.9227C54.3518 38.952 54.2839 38.9884 54.2206 39.0305C54.1561 39.0727 54.0964 39.1219 54.0425 39.1758C53.9884 39.2297 53.9392 39.2895 53.896 39.3539C53.8538 39.4172 53.8173 39.4852 53.7893 39.5566C53.76 39.627 53.7366 39.7008 53.7225 39.7758C53.7073 39.8508 53.6991 39.9281 53.6991 40.0043C53.6991 40.0803 53.7073 40.1578 53.7225 40.234C53.7366 40.3078 53.76 40.3816 53.7893 40.4531C53.8186 40.5234 53.855 40.5914 53.8971 40.6547C53.9392 40.7191 53.9884 40.7789 54.0425 40.8328C54.0964 40.8867 54.1561 40.9359 54.2206 40.9793C54.2839 41.0215 54.3518 41.0566 54.4221 41.0859C54.4936 41.1152 54.5675 41.1387 54.6425 41.1527C54.7176 41.168 54.7949 41.1762 54.871 41.1762C54.9471 41.1762 55.0246 41.168 55.0995 41.1527C55.1745 41.1387 55.2483 41.1152 55.3186 41.0859C55.3901 41.0566 55.4581 41.0215 55.5214 40.9793C55.5859 40.9359 55.6457 40.8867 55.6995 40.8328C55.7534 40.7789 55.8026 40.7191 55.8448 40.6547C55.8869 40.5914 55.9233 40.5234 55.9526 40.4531C55.9819 40.3816 56.0041 40.3078 56.0193 40.234C56.0346 40.1578 56.0427 40.0803 56.0427 40.0043C56.0427 39.9281 56.0346 39.8508 56.0193 39.7758Z" fill="#F1CDB3"/>
<path d="M42.3932 0C41.7461 0 41.2213 0.524648 41.2213 1.17188V3.13359C41.2213 3.78082 41.7461 4.30547 42.3932 4.30547C43.0404 4.30547 43.565 3.7807 43.565 3.13359V1.17188C43.565 0.524648 43.0404 0 42.3932 0Z" fill="#F1CDB3"/>
<path d="M37.4562 4.55659L35.8205 3.27234C35.6995 3.1773 35.5609 3.10703 35.4127 3.06555C35.2645 3.02407 35.1096 3.01218 34.9568 3.03057C34.804 3.04896 34.6563 3.09727 34.5222 3.17273C34.3881 3.24819 34.2701 3.34934 34.1751 3.47038C33.7755 3.97944 33.8642 4.71608 34.3731 5.11569L36.0088 6.39995C36.2149 6.56221 36.4695 6.65035 36.7318 6.65015C36.9095 6.65039 37.0849 6.61017 37.2447 6.53253C37.4046 6.45488 37.5446 6.34186 37.6543 6.20202C38.054 5.69284 37.9653 4.9562 37.4562 4.55659Z" fill="#F1CDB3"/>
<path d="M50.6113 3.47021C50.2117 2.96115 49.4752 2.87244 48.9659 3.27216L47.3302 4.55642C46.8211 4.95603 46.7324 5.69267 47.1321 6.20185C47.2417 6.34177 47.3818 6.45487 47.5416 6.53254C47.7015 6.61021 47.8769 6.65042 48.0546 6.6501C48.3169 6.65028 48.5716 6.56214 48.7776 6.3999L50.4133 5.11564C50.9224 4.71603 51.0111 3.97939 50.6113 3.47021Z" fill="#F1CDB3"/>
</symbol><symbol id="icon-vitamins" viewBox="0 0 60 60">
<path d="M54.3108 35.3986C51.0359 34.284 46.7048 33.6702 42.1158 33.6702C41.8289 33.6702 41.5431 33.6725 41.2586 33.6773C36.9894 33.7488 32.991 34.3536 29.9207 35.3986C29.428 35.5653 28.9424 35.7523 28.4651 35.9589V17.2325C28.4651 9.38472 22.0805 3 14.2325 3C6.38461 3 0 9.38472 0 17.2325V42.9261C0 50.7739 6.38461 57.1587 14.2325 57.1587C16.722 57.1587 19.1722 56.5062 21.3188 55.2717C22.6721 54.4934 23.8881 53.4936 24.9168 52.3257C25.6645 53.3761 27.1451 54.4856 29.9208 55.4303C33.1957 56.5448 37.5266 57.1587 42.1157 57.1587C46.7047 57.1587 51.0357 56.5448 54.3107 55.4303C59.0129 53.83 60 51.7566 60 50.299V40.5299C60 39.0723 59.0129 36.9989 54.3108 35.3986ZM26.5754 40.5299C26.5759 40.4863 26.5798 40.4428 26.5871 40.3998L26.5891 40.3882C26.6289 40.1764 26.7563 39.9305 26.9907 39.6639L26.9952 39.6589C27.0307 39.6187 27.0695 39.578 27.1099 39.5368C27.137 39.5096 27.1641 39.4823 27.193 39.4552L27.2271 39.4233C27.4235 39.2422 27.6601 39.0603 27.9332 38.8825C27.9379 38.8794 27.9418 38.8757 27.9464 38.8726C28.5871 38.4565 29.478 38.025 30.6759 37.6173C33.7141 36.5834 37.7769 36.0138 42.1158 36.0138C46.0691 36.0139 49.7904 36.488 52.719 37.3541L27.6397 41.9756C26.8868 41.4213 26.5767 40.9077 26.5754 40.5323V40.5299ZM26.1213 37.2903C25.2179 37.9825 24.7144 38.6857 24.4591 39.3382C24.3731 39.5576 24.3108 39.7855 24.2733 40.0181C24.2561 40.1239 24.2443 40.2305 24.2379 40.3375L24.2359 40.3677C24.2331 40.4224 24.2313 40.4766 24.2313 40.5298V49.3609C22.0289 52.7824 18.315 54.8149 14.2325 54.8149C7.67707 54.8149 2.34375 49.4816 2.34375 42.9261V31.2512H4.6875V37.5793C4.6875 38.2266 5.21227 38.7512 5.85938 38.7512C6.50648 38.7512 7.03125 38.2266 7.03125 37.5793V31.2512H26.1213V37.2903ZM26.1213 28.9075H7.03125V17.2325C7.03125 13.2618 10.2616 10.0312 14.2325 10.0312C18.2034 10.0312 21.4338 13.2618 21.4338 17.2325C21.4338 17.8798 21.9586 18.4044 22.6057 18.4044C23.2529 18.4044 23.7776 17.8798 23.7776 17.2325C23.7776 11.9694 19.4957 7.6875 14.2325 7.6875C8.96941 7.6875 4.6875 11.9694 4.6875 17.2325V28.9075H2.34375V17.2325C2.34375 10.6771 7.67707 5.34375 14.2325 5.34375C20.788 5.34375 26.1213 10.6771 26.1213 17.2325V28.9075ZM57.6562 50.299C57.6562 50.9987 56.5823 52.1814 53.5556 53.2116C50.5174 54.2455 46.4546 54.815 42.1158 54.815C37.7769 54.815 33.7141 54.2456 30.6759 53.2116C27.6492 52.1815 26.5753 50.9988 26.5753 50.299V49.6986L26.5754 49.697V44.0932C27.3962 44.6393 28.4844 45.1724 29.9208 45.6612C33.1957 46.7757 37.5267 47.3896 42.1158 47.3896C46.7048 47.3896 51.0359 46.7757 54.3108 45.6612C55.7471 45.1723 56.8355 44.6393 57.6562 44.0931V50.299ZM53.5556 43.4423C50.5174 44.4763 46.4548 45.0458 42.1158 45.0458C38.1056 45.0458 34.3334 44.5584 31.386 43.6685L56.525 39.036C57.3278 39.6098 57.6562 40.1435 57.6562 40.5299C57.6562 41.2296 56.5823 42.4123 53.5556 43.4423Z" fill="#F1CDB3"/>
<path d="M6.68777 41.402C6.63386 41.3481 6.57421 41.2989 6.50976 41.2567C6.44592 41.2141 6.37801 41.178 6.30702 41.1489C6.23671 41.1196 6.163 41.0973 6.088 41.0821C5.93718 41.0516 5.78179 41.0516 5.63097 41.0821C5.55597 41.0973 5.48214 41.1196 5.41066 41.1489C5.34023 41.1782 5.27238 41.2145 5.2091 41.2567C5.14452 41.2989 5.08476 41.3481 5.03085 41.402C4.97695 41.4559 4.92773 41.5157 4.88554 41.5802C4.84218 41.6434 4.80702 41.7114 4.77773 41.7829C4.74843 41.8532 4.72499 41.927 4.71105 42.002C4.6957 42.077 4.68761 42.1544 4.68761 42.2305C4.68761 42.3079 4.6957 42.3841 4.71105 42.4602C4.72499 42.5352 4.74843 42.6091 4.77773 42.6794C4.80702 42.7497 4.84218 42.8177 4.88554 42.8821C4.92773 42.9454 4.97695 43.0052 5.03085 43.0602C5.19533 43.2232 5.40397 43.3345 5.63097 43.3802C5.70597 43.3954 5.78331 43.4024 5.85949 43.4024C6.01311 43.4028 6.16526 43.3725 6.30702 43.3134C6.37801 43.2842 6.44592 43.2481 6.50976 43.2055C6.57421 43.1622 6.63398 43.1141 6.68788 43.0602C6.74191 43.0052 6.79113 42.9454 6.8332 42.8821C6.87538 42.8177 6.91171 42.7497 6.94101 42.6794C6.97031 42.6091 6.99374 42.5352 7.00898 42.4602C7.02421 42.3841 7.03124 42.3079 7.03124 42.2305C7.03124 41.9223 6.90585 41.62 6.68777 41.402Z" fill="#F1CDB3"/>
</symbol></svg>